<svg width="115" height="102" viewBox="0 0 115 102" fill="none" xmlns="http://www.w3.org/2000/svg">
<path d="M74.9524 67.5565H66.6433L59.9212 62.6726L57.3535 54.7702L59.9212 46.8678L66.6433 41.9839H74.9524L81.6745 46.8678L84.2422 54.7702L81.6745 62.6726L74.9524 67.5565Z" fill="white"/>
<path d="M48.167 24.167H73.5V40.9834H66.3184L66.0557 41.1758L63.3145 43.167H48.167V49.5H58.0146L56.4023 54.4619L56.3018 54.7705L56.4023 55.0801L56.6465 55.833H48.167V62.167H58.7051L58.9697 62.9824L59.0703 63.291L59.333 63.4824L66.0557 68.3662L66.2402 68.5H16.5V11.5H48.167V24.167ZM22.833 62.167H41.833V55.833H22.833V62.167ZM22.833 49.5H41.833V43.167H22.833V49.5ZM22.833 36.833H41.833V30.5H22.833V36.833ZM48.167 36.833H67.167V30.5H48.167V36.833ZM22.833 24.167H41.833V17.833H22.833V24.167Z" fill="white"/>
</svg>
