<svg width="115" height="102" viewBox="0 0 115 102" fill="none" xmlns="http://www.w3.org/2000/svg">
<path d="M74.9524 67.5565H66.6433L59.9212 62.6726L57.3535 54.7702L59.9212 46.8678L66.6433 41.9839H74.9524L81.6745 46.8678L84.2422 54.7702L81.6745 62.6726L74.9524 67.5565Z" fill="white"/>
<path d="M48.167 24.167H73.5V40.9834H66.3184L66.0557 41.1758L63.3145 43.167H48.167V49.5H58.0146L56.4023 54.4619L56.3018 54.7705L56.4023 55.0801L56.6465 55.833H48.167V62.167H58.7051L58.9697 62.9824L59.0703 63.291L59.333 63.4824L66.0557 68.3662L66.2402 68.5H16.5V11.5H48.167V24.167ZM22.833 62.167H41.833V55.833H22.833V62.167ZM22.833 49.5H41.833V43.167H22.833V49.5ZM22.833 36.833H41.833V30.5H22.833V36.833ZM48.167 36.833H67.167V30.5H48.167V36.833ZM22.833 24.167H41.833V17.833H22.833V24.167Z" fill="white"/>
<path d="M69.0577 52.2681H72.8313V49.1431H76.9232V58.062L73.4674 60.104H68.3748L64.9658 58.0284V49.1431H69.0577V52.2681ZM65.6023 49.7961V57.3521H76.2867V49.7961H73.4678V52.9211H68.4212V49.7961H65.6023ZM69.6297 53.8796C69.6601 53.8796 69.6847 53.9052 69.6847 53.9374V56.3334C69.6847 56.3656 69.6601 56.3913 69.6297 56.3913H68.4767C68.4462 56.3913 68.4216 56.3652 68.4216 56.3334V53.9379C68.4216 53.9057 68.4462 53.8801 68.4767 53.8801L69.6297 53.8796ZM73.4106 53.8796C73.441 53.8796 73.466 53.9052 73.466 53.9374V56.3334C73.466 56.3656 73.441 56.3913 73.4106 56.3913H72.2489C72.218 56.3913 72.1934 56.3652 72.1934 56.3334V53.9379C72.1934 53.9057 72.2185 53.8801 72.2489 53.8801L73.4106 53.8796Z" fill="black"/>
</svg>
