<svg width="115" height="102" viewBox="0 0 115 102" fill="none" xmlns="http://www.w3.org/2000/svg">
<path d="M36.3832 43.6261H27.8191L20.8906 38.5923L18.2441 30.4473L20.8906 22.3024L27.8191 17.2686H36.3832L43.3117 22.3024L45.9581 30.4473L43.3117 38.5923L36.3832 43.6261Z" fill="white"/>
<path d="M20.7549 39.6489L27.4775 44.5327L27.7402 44.7231H36.6992L36.9619 44.5327L43.6846 39.6489L43.8418 39.5347H47.8574V52.2017H73.1904V96.5347H16.1904V39.5347H20.5977L20.7549 39.6489ZM22.5234 90.2017H41.5234V83.8677H22.5234V90.2017ZM47.8574 90.2017H66.8574V83.8677H47.8574V90.2017ZM22.5234 77.5347H41.5234V71.2017H22.5234V77.5347ZM47.8574 77.5347H66.8574V71.2017H47.8574V77.5347ZM22.5234 64.8677H41.5234V58.5347H22.5234V64.8677ZM47.8574 64.8677H66.8574V58.5347H47.8574V64.8677ZM22.5234 52.2017H41.5234V45.8677H22.5234V52.2017Z" fill="white"/>
<path d="M30.156 28.0198H34.0454V24.7988H38.2629V33.9915L34.701 36.0962H29.4521L25.9385 33.9569V24.7988H30.156V28.0198ZM26.5945 25.4719V33.2598H37.6068V25.4719H34.7015V28.6928H29.4999V25.4719H26.5945ZM30.7455 29.6807C30.7769 29.6807 30.8022 29.7072 30.8022 29.7403V32.2099C30.8022 32.2431 30.7769 32.2695 30.7455 32.2695H29.5571C29.5257 32.2695 29.5004 32.2426 29.5004 32.2099V29.7408C29.5004 29.7077 29.5257 29.6812 29.5571 29.6812L30.7455 29.6807ZM34.6424 29.6807C34.6738 29.6807 34.6996 29.7072 34.6996 29.7403V32.2099C34.6996 32.2431 34.6738 32.2695 34.6424 32.2695H33.4451C33.4133 32.2695 33.388 32.2426 33.388 32.2099V29.7408C33.388 29.7077 33.4137 29.6812 33.4451 29.6812L34.6424 29.6807Z" fill="black"/>
</svg>
