<svg width="115" height="102" viewBox="0 0 115 102" fill="none" xmlns="http://www.w3.org/2000/svg">
<path d="M36.3832 43.6261H27.8191L20.8906 38.5923L18.2441 30.4473L20.8906 22.3024L27.8191 17.2686H36.3832L43.3117 22.3024L45.9581 30.4473L43.3117 38.5923L36.3832 43.6261Z" fill="white"/>
<path d="M20.7549 39.6489L27.4775 44.5327L27.7402 44.7231H36.6992L36.9619 44.5327L43.6846 39.6489L43.8418 39.5347H47.8574V52.2017H73.1904V96.5347H16.1904V39.5347H20.5977L20.7549 39.6489ZM22.5234 90.2017H41.5234V83.8677H22.5234V90.2017ZM47.8574 90.2017H66.8574V83.8677H47.8574V90.2017ZM22.5234 77.5347H41.5234V71.2017H22.5234V77.5347ZM47.8574 77.5347H66.8574V71.2017H47.8574V77.5347ZM22.5234 64.8677H41.5234V58.5347H22.5234V64.8677ZM47.8574 64.8677H66.8574V58.5347H47.8574V64.8677ZM22.5234 52.2017H41.5234V45.8677H22.5234V52.2017Z" fill="white"/>
</svg>
