<svg width="150" height="150" viewBox="0 0 150 150" fill="none" xmlns="http://www.w3.org/2000/svg">
<path d="M143.214 71.7113H96.1239C91.522 71.7113 89.2153 66.1461 92.4741 62.893L125.77 29.5971C127.249 28.1179 127.249 25.7149 125.77 24.2413C124.291 22.7621 121.888 22.7621 120.409 24.2413L87.1128 57.5372C83.8597 60.7903 78.2943 58.4893 78.2943 53.8818V6.79144C78.2943 4.69451 76.5998 3 74.5028 3C72.4059 3 70.7114 4.69451 70.7114 6.79144V53.8818C70.7114 58.4837 65.146 60.7903 61.8929 57.5372L28.597 24.2413C27.1179 22.7621 24.7149 22.7621 23.2357 24.2413C21.7565 25.7205 21.7565 28.1179 23.2357 29.5971L56.5316 62.893C59.7847 66.1461 57.4837 71.7113 52.8818 71.7113H5.79151C3.70025 71.7113 2 73.406 2 75.5029C2 77.5998 3.69458 79.2943 5.79151 79.2943H52.8818C57.4837 79.2943 59.7903 84.8598 56.5316 88.1128L23.2357 121.409C21.7565 122.888 21.7565 125.285 23.2357 126.764C24.7149 128.244 27.1122 128.244 28.597 126.764L61.8929 93.4685C65.146 90.2154 70.7114 92.5163 70.7114 97.1182V144.209C70.7114 146.3 72.4059 148 74.5028 148C76.5998 148 78.2943 146.3 78.2943 144.209V97.1182C78.2943 92.5163 83.8597 90.2097 87.1128 93.4628L120.409 126.759C121.888 128.238 124.285 128.238 125.77 126.759C127.249 125.279 127.249 122.877 125.77 121.403L92.4741 88.1072C89.221 84.8541 91.522 79.2887 96.1239 79.2887H143.214C145.305 79.2887 147.006 77.5942 147.006 75.4972C147.006 73.4003 145.311 71.7057 143.214 71.7057V71.7113Z" fill="#B6FF00"/>
</svg>
