<svg width="150" height="150" viewBox="0 0 150 150" fill="none" xmlns="http://www.w3.org/2000/svg">
<path d="M71.9972 9H51.0142C51.0142 20.6331 46.3303 31.0658 38.7103 38.7034C31.0726 46.3235 20.6399 51.0014 9.00684 51.0073V71.9904C26.3711 71.9904 42.1821 64.9234 53.5503 53.5375C64.9304 42.1692 72.0031 26.3584 72.0031 9H71.9972Z" fill="white"/>
<path d="M141 51.0073C129.367 51.0073 118.929 46.3235 111.297 38.7034C103.677 31.0657 98.9988 20.6331 98.9929 9H78.0098C78.0098 26.3584 85.0767 42.1751 96.4568 53.5375C107.825 64.9234 123.636 71.9962 141 71.9904V51.0073Z" fill="white"/>
<path d="M96.4627 96.4567C85.0826 107.825 78.0097 123.636 78.0156 141H98.9988C98.9988 129.367 103.683 118.928 111.303 111.297C118.94 103.677 129.373 98.9987 141.006 98.9928V78.0098C123.648 78.0098 107.831 85.0767 96.4627 96.4567Z" fill="white"/>
<path d="M9.00589 78.0098V98.9928C20.639 98.9928 31.0775 103.677 38.7093 111.297C46.3294 118.934 51.0074 129.367 51.0133 141H71.9963C71.9963 123.636 64.9294 107.825 53.5435 96.4567C42.1752 85.0767 26.3643 78.0039 9 78.0098H9.00589Z" fill="white"/>
</svg>
