<svg width="150" height="150" viewBox="0 0 150 150" fill="none" xmlns="http://www.w3.org/2000/svg">
<g clip-path="url(#clip0_829_3127)">
<path d="M146.078 71.0721H97.3658C96.7034 71.0721 96.0995 70.9372 95.5367 70.7379C95.9706 70.3275 96.4747 69.9699 97.0785 69.7061L141.787 50.3595C143.774 49.4977 144.689 47.1937 143.827 45.2063C142.971 43.2189 140.661 42.3043 138.674 43.1661L93.9714 62.5127C93.6431 62.6534 93.3147 62.7002 92.9864 62.7706C93.174 62.495 93.3382 62.202 93.5903 61.9499L128.033 27.5072C129.563 25.9771 129.563 23.4914 128.033 21.9671C126.503 20.437 124.017 20.437 122.487 21.9671L88.0443 56.4098C87.5753 56.8788 87.0594 57.213 86.5142 57.4651C86.5318 56.8671 86.6314 56.2632 86.8777 55.6417L104.811 10.3533C105.609 8.34241 104.624 6.0619 102.613 5.26459C100.602 4.46728 98.3214 5.4522 97.5241 7.46893L79.5904 52.7633C79.4615 53.0974 79.2563 53.3554 79.0745 53.6426C79.01 53.3085 78.9221 52.9919 78.9221 52.6343V3.92203C78.9221 1.75288 77.1692 0 75.0001 0C72.8309 0 71.078 1.75288 71.078 3.92203V52.6343C71.078 53.2968 70.9432 53.9005 70.7438 54.4633C70.3393 54.0295 69.9758 53.5254 69.712 52.9216L50.3655 8.21349C49.5037 6.22607 47.1997 5.31152 45.2122 6.17332C43.2248 7.03512 42.3103 9.34486 43.1721 11.3264L62.5186 56.0286C62.6593 56.3628 62.7062 56.6853 62.7766 57.0136C62.5011 56.826 62.2079 56.6619 61.9558 56.4098L27.5131 21.9671C25.983 20.437 23.4972 20.437 21.973 21.9671C20.4428 23.4972 20.4428 25.9771 21.973 27.5072L56.4156 61.9499C56.8846 62.4189 57.2188 62.9349 57.4709 63.4801C56.8729 63.4625 56.2632 63.3628 55.6477 63.1165L10.3592 45.1828C8.34835 44.3855 6.06777 45.3704 5.27046 47.3872C4.47315 49.398 5.45807 51.6787 7.47479 52.476L52.7633 70.4037C53.0974 70.5385 53.3612 70.7379 53.6426 70.9138C53.3085 70.9783 52.9919 71.0721 52.6343 71.0721H3.92211C1.75881 71.0721 0 72.825 0 74.9941C0 77.1633 1.75295 78.9162 3.92211 78.9162H52.6343C53.2968 78.9162 53.9006 79.0452 54.4576 79.2504C54.0237 79.6608 53.5195 80.0184 52.9157 80.2822L8.21349 99.6287C6.22607 100.491 5.31152 102.795 6.17332 104.782C7.03512 106.769 9.33914 107.684 11.3266 106.822L56.0346 87.4756C56.3629 87.3349 56.6912 87.2939 57.0195 87.2177C56.826 87.4991 56.6677 87.7863 56.4156 88.0443L21.973 122.487C20.4428 124.017 20.4428 126.497 21.973 128.033C23.5031 129.563 25.983 129.563 27.5131 128.033L61.9558 93.5902C62.4248 93.1212 62.9466 92.787 63.4859 92.5349C63.4684 93.1271 63.3687 93.7368 63.1225 94.3524L45.1888 139.647C44.3915 141.658 45.3764 143.938 47.3931 144.735C49.404 145.533 51.6846 144.548 52.4819 142.531L70.4096 97.2426C70.5445 96.9084 70.7438 96.6446 70.9255 96.3574C70.99 96.6915 71.078 97.0081 71.078 97.3657V146.078C71.078 148.241 72.8309 150 75.0001 150C77.1692 150 78.9221 148.241 78.9221 146.078V97.3657C78.9221 96.7032 79.0511 96.0995 79.2563 95.5367C79.6608 95.9705 80.0243 96.4746 80.2881 97.0784L99.6347 141.781C100.496 143.768 102.8 144.683 104.788 143.821C106.775 142.959 107.69 140.649 106.828 138.668L87.4815 93.9655C87.3408 93.6313 87.2939 93.3088 87.2235 92.9805C87.5049 93.174 87.7922 93.3323 88.0443 93.5844L122.487 128.027C124.017 129.557 126.497 129.557 128.033 128.027C129.569 126.497 129.563 124.011 128.033 122.481L93.5903 88.0384C93.1213 87.5694 92.7871 87.0534 92.535 86.5082C93.133 86.5258 93.7369 86.6255 94.3583 86.8717L139.647 104.805C141.658 105.603 143.938 104.618 144.735 102.601C145.533 100.59 144.548 98.3096 142.531 97.5123L97.2368 79.5787C96.9026 79.4439 96.6388 79.2445 96.3574 79.0686C96.6916 79.0041 97.0082 78.9162 97.3658 78.9162H146.078C148.241 78.9162 150 77.1633 150 74.9941C150 72.825 148.247 71.0721 146.078 71.0721Z" fill="white"/>
</g>
<defs>
<clipPath id="clip0_829_3127">
<rect width="150" height="150" fill="white"/>
</clipPath>
</defs>
</svg>
