<svg width="306" height="258" viewBox="0 0 306 258" fill="none" xmlns="http://www.w3.org/2000/svg">
<path d="M305.733 138.359V7.78491C305.733 5.72439 306.237 2.90857 305.733 0.901052C305.667 0.636034 305.733 0.278269 305.733 0C305.733 0.159011 302.162 3.25973 302.526 2.90858C300.015 5.31363 297.537 7.77166 295.079 10.2297C292.621 12.6944 290.163 15.159 287.758 17.6767C287.188 18.273 284.85 20.1082 284.85 20.8834V149.059C284.28 146.674 283.71 144.289 283.14 141.904C278.443 122.22 273.739 102.536 269.041 82.8513C268.359 79.9825 267.67 77.1137 266.988 74.2449C266.65 72.8204 266.451 71.2369 265.536 70.0509C262.681 66.3605 255.539 66.5924 251.848 68.6795C250.119 69.66 248.681 71.2568 247.277 72.6083C242.977 76.7426 238.756 80.9631 234.589 85.2299C232.436 87.4361 228.719 90.0532 228.374 93.4454C227.897 98.1164 228.374 103.079 228.374 107.77V150.643C227.752 148.079 227.129 145.521 226.506 142.957C221.63 122.909 216.753 102.854 211.877 82.8049C210.89 78.7303 210.34 74.1057 208.79 70.1967C206.967 65.5854 200.07 65.274 196.035 66.6388C191.689 68.1097 188.171 72.8204 185.09 75.8681C180.817 80.0951 176.278 84.2559 172.396 88.8606C171.694 89.6954 171.104 90.4706 170.892 91.577C170.07 95.9101 170.852 101.098 170.852 105.477V148.748C170.276 146.33 169.699 143.912 169.123 141.487C164.432 121.822 159.735 102.158 155.044 82.4869C154.388 79.7241 153.725 76.9613 153.063 74.1918C152.705 72.7011 152.506 71.0845 151.459 69.8919C148.339 66.3142 141.117 66.6388 137.447 69.0438C135.943 70.0244 134.657 71.4357 133.379 72.6614C129.072 76.7824 124.865 81.0161 120.691 85.2828C118.531 87.4891 114.821 90.1062 114.476 93.4984C113.999 98.1694 114.476 103.132 114.476 107.823V150.683C113.867 148.178 113.257 145.674 112.647 143.176C107.745 123.008 102.835 102.84 97.9257 82.6724C96.9319 78.5978 96.4548 73.7745 94.7786 69.8986C92.8042 65.3204 85.4433 65.2143 81.5078 66.8243C80.5935 67.202 79.7918 67.7122 79.0166 68.3217C75.1937 71.3429 71.8215 75.1724 68.3895 78.6044C65.0569 81.937 61.5188 85.2166 58.4711 88.8275C57.5899 89.8677 57.0732 90.7157 56.9274 92.0872C56.457 96.5528 56.9274 101.323 56.9274 105.815V149.417C54.8934 140.937 52.8594 132.463 50.8321 123.982C47.7247 111.003 44.6107 98.0236 41.4967 85.051C40.5824 81.2347 39.6682 77.4118 38.7539 73.5956C37.9588 70.2828 36.6337 68.1627 32.9035 67.3212C29.7498 66.6057 25.9533 66.9105 23.2038 68.706C19.9308 70.846 17.2144 74.1653 14.4715 76.8818C10.1318 81.1751 4.85796 85.5015 1.25372 90.4838C0.0677593 92.127 0.226738 93.6707 0.226738 95.5523V249.601C0.226738 251.668 -0.283422 254.484 0.226738 256.498C0.292992 256.763 0.226738 257.121 0.226738 257.399C0.226738 257.24 3.79792 254.139 3.43352 254.49C5.94456 252.085 8.42248 249.634 10.8805 247.169C13.3386 244.705 15.7966 242.24 18.2017 239.722C18.7715 239.126 21.1102 237.291 21.1102 236.516V107.995C21.68 110.38 22.2564 112.765 22.8262 115.15C27.5966 135.06 32.3734 154.969 37.1438 174.879C37.8328 177.734 38.5153 180.597 39.2043 183.459C39.5422 184.883 39.741 186.467 40.6553 187.646C43.5175 191.343 50.653 191.098 54.3434 189.018C56.0727 188.044 57.5105 186.434 58.9151 185.089C63.2216 180.961 67.4354 176.734 71.6028 172.467C73.7759 170.241 77.473 167.664 77.8175 164.252C78.2879 159.614 77.8175 154.671 77.8175 150.014V106.729C78.4271 109.234 79.0366 111.738 79.6462 114.236C84.5556 134.404 89.4584 154.572 94.3679 174.74C95.3485 178.775 95.8983 183.366 97.4288 187.242C99.2508 191.853 106.155 192.165 110.183 190.8C114.582 189.309 117.961 184.691 121.121 181.571C125.395 177.344 129.94 173.183 133.823 168.578C134.538 167.73 135.114 166.975 135.326 165.862C136.141 161.548 135.366 156.407 135.366 152.048V108.406C135.916 110.718 136.473 113.037 137.023 115.349C141.72 135.04 146.417 154.731 151.122 174.422C151.791 177.224 152.46 180.027 153.129 182.829C153.467 184.254 153.666 185.857 154.587 187.043C157.442 190.74 164.585 190.508 168.275 188.421C169.693 187.62 170.839 186.387 172.005 185.287C176.63 180.941 181.095 176.416 185.527 171.871C187.661 169.685 191.404 167.021 191.749 163.655C192.226 158.951 191.749 153.956 191.749 149.238V106.769C192.372 109.327 192.994 111.891 193.617 114.448C198.494 134.497 203.37 154.552 208.246 174.601C209.247 178.708 209.73 183.571 211.413 187.48C213.388 192.052 220.762 192.165 224.684 190.548C225.598 190.17 226.4 189.66 227.175 189.057C230.998 186.036 234.37 182.207 237.802 178.775C241.128 175.449 244.68 172.156 247.721 168.552C248.602 167.511 249.119 166.657 249.264 165.292C249.722 160.972 249.264 156.354 249.264 152.021V108.353C251.292 116.833 253.313 125.321 255.34 133.801C258.427 146.721 261.508 159.64 264.596 172.56C265.49 176.29 266.378 180.027 267.272 183.757C268.107 187.255 269.883 189.276 273.739 189.945C276.84 190.482 280.351 190.064 282.988 188.269C286.685 185.751 289.746 182.001 292.9 178.867C296.756 175.031 301.837 171.016 304.879 166.431C305.939 164.835 305.746 163.198 305.746 161.376V138.373L305.733 138.359Z" fill="#B6FF00"/>
</svg>
