<svg width="150" height="150" viewBox="0 0 150 150" fill="none" xmlns="http://www.w3.org/2000/svg">
<path d="M19.7632 14.9889C18.4446 13.6704 16.3075 13.6704 14.9889 14.9889C13.6704 16.3075 13.6704 18.4444 14.9889 19.763L63.0648 67.839C64.3834 69.1576 66.5205 69.1576 67.8391 67.839C69.1577 66.5204 69.1577 64.3833 67.8391 63.0647L19.7632 14.9889Z" fill="#B6FF00"/>
<path d="M86.9283 82.1608C85.6097 80.8422 83.4726 80.8422 82.154 82.1608C80.8354 83.4794 80.8354 85.6165 82.154 86.9351L130.23 135.011C131.548 136.329 133.685 136.329 135.004 135.011C136.323 133.692 136.323 131.555 135.004 130.237L86.9283 82.1608Z" fill="#B6FF00"/>
<path d="M86.9283 67.8468L135.004 19.7709C136.323 18.4523 136.323 16.3154 135.004 14.9968C133.685 13.6782 131.548 13.6782 130.23 14.9968L82.154 63.0725C80.8354 64.3911 80.8354 66.5282 82.154 67.8468C83.4726 69.1654 85.6097 69.1654 86.9283 67.8468Z" fill="#B6FF00"/>
<path d="M63.0648 82.1608L14.9889 130.237C13.6704 131.555 13.6704 133.692 14.9889 135.011C16.3075 136.329 18.4446 136.329 19.7632 135.011L67.8391 86.9351C69.1577 85.6165 69.1577 83.4794 67.8391 82.1608C66.5205 80.8422 64.3834 80.8422 63.0648 82.1608Z" fill="#B6FF00"/>
</svg>
