<svg width="150" height="150" viewBox="0 0 150 150" fill="none" xmlns="http://www.w3.org/2000/svg">
<path d="M23.6985 47.7073H15.2013V31.722C15.2013 26.5412 17.3302 21.8157 20.7266 18.4254C24.1169 15.029 28.8423 12.9001 34.0231 12.9001H50.0084V21.4035H34.0231C31.1866 21.4035 28.627 22.5541 26.738 24.443C24.8552 26.332 23.7046 28.8916 23.7046 31.7281V47.7134L23.6985 47.7073ZM128.464 24.4369C130.347 26.3258 131.498 28.8855 131.498 31.722V47.7073H140.001V31.722C140.001 26.5412 137.872 21.8157 134.476 18.4254C131.086 15.029 126.36 12.9001 121.179 12.9001H105.194V21.4035H121.179C124.016 21.4035 126.575 22.5541 128.464 24.443V24.4369ZM26.7319 126.169C24.8491 124.28 23.6985 121.721 23.6985 118.884V102.899H15.2013V118.884C15.2013 124.059 17.3302 128.791 20.7266 132.181C24.1169 135.577 28.8423 137.706 34.0231 137.706H50.0084V129.209H34.0231C31.1866 129.209 28.627 128.058 26.738 126.169H26.7319ZM131.498 118.884C131.498 121.721 130.347 124.28 128.464 126.169C126.575 128.052 124.016 129.203 121.179 129.209H105.194V137.706H121.179C126.36 137.706 131.086 135.577 134.476 132.181C137.872 128.791 140.001 124.065 140.001 118.884V102.899H131.498V118.884ZM99.2688 71.3776C97.9643 70.9407 96.6722 70.473 95.3924 69.9439C88.9072 67.2674 84.1879 62.7819 81.5298 56.2967C80.8161 54.5616 80.1946 52.7957 79.6163 51.0052V3H71.3775V52.0328C71.1991 52.5866 71.0452 53.1403 70.8545 53.6879C67.9565 61.9882 62.4865 67.6612 54.1739 70.6269C53.3802 70.91 52.5618 71.1253 51.762 71.3837H3V79.6224H51.4913C51.9404 79.7701 52.3957 79.8871 52.8449 80.0409C56.7827 81.4069 60.4991 83.1851 63.631 86.0154C67.2551 89.2826 69.4332 93.4481 71.0391 97.9643C71.1622 98.3212 71.2606 98.6842 71.3837 99.0411V148H79.6224V99.9148C79.9301 98.9365 80.2316 97.9581 80.5885 96.986C83.3758 89.3379 88.3904 83.9049 96.0262 80.9208C97.2383 80.447 98.4627 80.0162 99.6933 79.6163H148V71.3776H99.2749H99.2688Z" fill="white"/>
</svg>
