<svg width="150" height="150" viewBox="0 0 150 150" fill="none" xmlns="http://www.w3.org/2000/svg">
<path d="M38.3905 53.6818C50.1677 50.9021 57.4616 39.1014 54.682 27.3242C51.9023 15.547 40.1016 8.25322 28.3244 11.0329C16.5473 13.8126 9.25334 25.6131 12.033 37.3903C14.8127 49.1675 26.6133 56.4614 38.3905 53.6818Z" fill="white"/>
<path d="M121.063 54.2128C133.161 54.2128 142.973 44.4071 142.973 32.3024C142.973 20.1976 133.161 10.3921 121.063 10.3921C108.965 10.3921 99.1523 20.1976 99.1523 32.3024C99.1523 44.4071 108.965 54.2128 121.063 54.2128Z" fill="white"/>
<path d="M77.2414 53.2783C65.1433 53.2783 55.3311 63.0905 55.3311 75.1886C55.3311 87.2867 65.1433 97.099 77.2414 97.099C89.3395 97.099 99.1517 87.2867 99.1517 75.1886C99.1517 63.0905 89.3461 53.2783 77.2414 53.2783Z" fill="white"/>
<path d="M37.003 139.651C48.9474 137.712 57.0586 126.458 55.1197 114.513C53.1809 102.569 41.9262 94.4578 29.9818 96.3966C18.0373 98.3355 9.92623 109.59 11.8651 121.534C13.8039 133.479 25.0585 141.59 37.003 139.651Z" fill="white"/>
<path d="M121.069 96.165C108.971 96.165 99.1582 105.971 99.1582 118.075C99.1582 130.18 108.971 139.986 121.069 139.986C133.167 139.986 142.979 130.18 142.979 118.075C142.979 105.971 133.167 96.165 121.069 96.165Z" fill="white"/>
</svg>
