<svg width="150" height="150" viewBox="0 0 150 150" fill="none" xmlns="http://www.w3.org/2000/svg">
<path d="M134.98 104.993C130.289 97.9769 122.697 94.7438 115.316 95.2804C109.731 95.6846 104.192 94.0149 100.23 90.0528L97.8709 87.6941C90.7287 80.5519 90.7287 68.9774 97.8709 61.8351L100.23 59.4764C104.192 55.5144 109.724 53.8447 115.309 54.2488C122.697 54.7855 130.303 51.5457 134.993 44.5095C139.664 37.4997 139.717 28.0585 135.099 21.0156C127.268 9.06992 111.069 7.85747 101.548 17.3849C96.8042 22.1221 94.7371 28.5156 95.3267 34.7104C95.8369 40.1101 93.9089 45.4569 90.0728 49.293L87.7008 51.665C80.5586 58.8072 68.9839 58.8072 61.8417 51.665L59.483 49.3063C55.521 45.3443 53.8514 39.812 54.2555 34.2201C54.7856 26.8393 51.559 19.2466 44.5426 14.5558C37.5395 9.8716 28.0982 9.80537 21.0421 14.4167C9.06993 22.2347 7.85087 38.4538 17.3849 47.9878C22.1287 52.7317 28.5223 54.7989 34.7104 54.2092C40.1102 53.6991 45.4569 55.627 49.2931 59.4632L51.665 61.8416C58.8072 68.9838 58.8072 80.5585 51.665 87.7008L49.3063 90.0595C45.3443 94.0215 39.8121 95.6912 34.2202 95.287C26.8394 94.7504 19.2533 97.9835 14.5558 105C9.87162 112.003 9.80535 121.444 14.4167 128.5C22.2347 140.473 38.4539 141.698 47.9879 132.158C52.7317 127.414 54.7988 121.027 54.2092 114.832C53.699 109.432 55.627 104.086 59.4631 100.25L61.8351 97.8775C68.9773 90.7353 80.552 90.7353 87.6942 97.8775L90.0661 100.25C93.9023 104.086 95.8303 109.432 95.3201 114.832C94.7304 121.027 96.8042 127.414 101.541 132.158C111.075 141.692 127.295 140.473 135.113 128.5C139.717 121.444 139.658 112.003 134.973 105L134.98 104.993Z" fill="white"/>
</svg>
