<svg width="150" height="150" viewBox="0 0 150 150" fill="none" xmlns="http://www.w3.org/2000/svg">
<path d="M83.1183 53.8699C94.298 49.2391 99.6069 36.4222 94.9762 25.2425C90.3454 14.0629 77.5285 8.75407 66.3489 13.3848C55.1692 18.0156 49.8604 30.8323 54.4911 42.012C59.1219 53.1916 71.9387 58.5006 83.1183 53.8699Z" fill="white"/>
<path d="M123.071 55.0671C133.002 52.9867 140.462 44.1748 140.462 33.6271C140.462 21.5224 130.65 11.7168 118.552 11.7168C106.454 11.7168 96.6416 21.5224 96.6416 33.6271C96.6416 44.1814 104.102 52.9867 114.033 55.0671C104.102 57.1475 96.6416 65.9593 96.6416 76.507C96.6416 88.6117 106.454 98.4174 118.552 98.4174C130.65 98.4174 140.462 88.6051 140.462 76.507C140.462 65.9593 133.002 57.1475 123.071 55.0671Z" fill="white"/>
<path d="M35.429 97.9536C45.3606 95.8732 52.8209 87.0613 52.8209 76.5069C52.8209 64.4089 43.0151 54.5967 30.9104 54.5967C18.8057 54.5967 9 64.4089 9 76.5069C9 87.0613 16.4603 95.8666 26.3918 97.9536C16.4603 100.034 9 108.846 9 119.394C9 131.498 18.8123 141.304 30.9104 141.304C43.0085 141.304 52.8209 131.498 52.8209 119.394C52.8209 108.839 45.3606 100.034 35.429 97.9536Z" fill="white"/>
<path d="M78.3066 140.955C90.251 139.017 98.3622 127.762 96.4233 115.817C94.4845 103.873 83.2298 95.762 71.2854 97.7008C59.341 99.6397 51.2299 110.894 53.1688 122.839C55.1076 134.783 66.3622 142.894 78.3066 140.955Z" fill="white"/>
</svg>
