<svg width="150" height="150" viewBox="0 0 150 150" fill="none" xmlns="http://www.w3.org/2000/svg">
<path d="M122.024 115.758L88.3006 82.0346C84.3187 78.0594 84.3187 71.5995 88.3006 67.6243L121.991 33.9338C125.973 37.9157 132.426 37.9157 136.401 33.9338L142.669 27.6661C146.651 23.6908 146.651 17.231 142.669 13.2557L136.401 6.98809C132.419 3.01281 125.966 3.01281 121.991 6.98809L115.723 13.2557C111.741 17.2376 111.741 23.6908 115.723 27.6661L82.033 61.3565C78.0511 65.3384 71.5979 65.3384 67.6226 61.3565L33.9321 27.6661C37.914 23.6842 37.914 17.231 33.9321 13.2491L27.6644 6.98146C23.6825 3.00618 17.2294 3.00618 13.2541 6.98146L6.98642 13.2491C3.00453 17.231 3.00453 23.6842 6.98642 27.6595L13.2541 33.9271C17.236 37.909 23.6892 37.909 27.6644 33.9271L61.3548 67.6176C65.3367 71.5995 65.3367 78.0527 61.3548 82.028L27.6644 115.718C23.6825 111.743 17.2294 111.743 13.2541 115.718L6.98642 121.986C3.00453 125.968 3.00453 132.421 6.98642 136.396L13.2541 142.664C17.236 146.646 23.6892 146.646 27.6644 142.664L33.9321 136.396C37.914 132.421 37.914 125.961 33.9321 121.986L67.6226 88.2957C71.6045 84.3138 78.0577 84.3138 82.033 88.2957L115.763 122.019C111.781 126.001 111.781 132.454 115.763 136.43L122.031 142.697C126.013 146.679 132.466 146.679 136.441 142.697L142.709 136.43C146.691 132.454 146.691 125.994 142.709 122.019L136.441 115.752C132.459 111.776 126.006 111.776 122.031 115.752L122.024 115.758Z" fill="#B6FF00"/>
</svg>
