<svg width="150" height="150" viewBox="0 0 150 150" fill="none" xmlns="http://www.w3.org/2000/svg">
<path d="M79.2492 53.3503C89.1808 51.2699 96.641 42.458 96.641 31.9103C96.641 19.8056 86.8354 10 74.7307 10C62.626 10 52.8203 19.8056 52.8203 31.9103C52.8203 42.4646 60.2806 51.2699 70.2121 53.3503C60.2806 55.4307 52.8203 64.2425 52.8203 74.7902C52.8203 85.3379 60.2806 94.1498 70.2121 96.2369C60.2806 98.3173 52.8203 107.129 52.8203 117.677C52.8203 129.782 62.6326 139.587 74.7307 139.587C86.8287 139.587 96.641 129.782 96.641 117.677C96.641 107.123 89.1808 98.3173 79.2492 96.2369C89.1808 94.1565 96.641 85.3445 96.641 74.7902C96.641 64.2358 89.1808 55.4307 79.2492 53.3503Z" fill="#B6FF00"/>
<path d="M123.071 53.3503C133.002 51.2699 140.462 42.458 140.462 31.9103C140.462 19.8056 130.65 10 118.552 10C106.454 10 96.6416 19.8056 96.6416 31.9103C96.6416 42.4646 104.102 51.2699 114.033 53.3503C104.102 55.4307 96.6416 64.2425 96.6416 74.7902C96.6416 86.8949 106.454 96.7006 118.552 96.7006C130.65 96.7006 140.462 86.8883 140.462 74.7902C140.462 64.2425 133.002 55.4307 123.071 53.3503Z" fill="#B6FF00"/>
<path d="M35.429 96.2368C45.3605 94.1564 52.8208 85.3445 52.8208 74.7901C52.8208 62.6921 43.0085 52.8799 30.9104 52.8799C18.8123 52.8799 9 62.6921 9 74.7901C9 85.3445 16.4603 94.1498 26.3918 96.2368C16.4603 98.3172 9 107.129 9 117.677C9 129.782 18.8057 139.587 30.9104 139.587C43.0151 139.587 52.8208 129.782 52.8208 117.677C52.8208 107.123 45.3605 98.3172 35.429 96.2368Z" fill="#B6FF00"/>
</svg>
