<svg width="150" height="150" viewBox="0 0 150 150" fill="none" xmlns="http://www.w3.org/2000/svg">
<path d="M106.282 8L121.901 23.6255L100.923 44.604C93.7915 51.7415 84.3493 55.3535 75.0001 55.3411C65.657 55.3535 56.2085 51.7415 49.0773 44.604L28.0987 23.6255L43.7181 8L64.6966 28.9786C67.5714 31.841 71.2331 33.235 74.9939 33.2474C78.7546 33.235 82.4162 31.8471 85.291 28.9786L106.27 8H106.282ZM142.006 106.276L121.028 85.2972C118.165 82.4224 116.777 78.7608 116.765 75C116.777 71.233 118.165 67.5714 121.028 64.7028L142.006 43.7242L126.387 28.0988L105.408 49.0773C98.2709 56.2085 94.6589 65.6569 94.6713 75C94.6589 84.3431 98.2709 93.7915 105.408 100.917L126.387 121.895L142.012 106.276H142.006ZM43.7243 142L64.7028 121.021C67.5776 118.153 71.2331 116.765 75.0001 116.753C78.7608 116.765 82.4224 118.153 85.2972 121.021L106.276 142L121.901 126.374L100.923 105.396C93.7915 98.2586 84.3493 94.6465 75.0001 94.6589C65.657 94.6465 56.2085 98.2586 49.0773 105.396L28.0987 126.374L43.7243 142ZM8 43.7242L28.9786 64.7028C31.841 67.5776 33.2288 71.2392 33.2412 75C33.2288 78.7608 31.841 82.4224 28.9786 85.2972L8 106.276L23.6255 121.901L44.6041 100.923C51.7415 93.7915 55.3536 84.3493 55.3412 75.0062C55.3536 65.6631 51.7415 56.2147 44.6041 49.0835L23.6255 28.105L8 43.7304V43.7242Z" fill="#B6FF00"/>
</svg>
