<svg width="150" height="150" viewBox="0 0 150 150" fill="none" xmlns="http://www.w3.org/2000/svg">
<path d="M134.69 102.662C129.644 97.5984 122.88 96.0081 116.776 97.4055C111.315 98.6566 105.597 98.0136 100.943 94.8915L90.4018 87.8113C84.4792 83.8356 80.9244 77.1705 80.9244 70.0318V63.5479C80.9244 57.678 83.3099 52.0418 87.6013 48.0428C92.2084 43.7514 94.6873 37.209 93.2783 30.1639C91.8225 22.8732 85.9642 16.9506 78.691 15.4305C66.3489 12.8522 55.4801 22.2068 55.4801 34.0988C55.4801 39.6413 57.848 44.6226 61.6249 48.1071C66.0683 52.2056 68.2257 58.2275 68.2257 64.2671V70.0318C68.2257 77.1705 64.6709 83.8356 58.7484 87.8113L48.207 94.8857C43.5531 98.0136 37.8293 98.6508 32.3686 97.3996C26.2589 96.0023 19.4944 97.5926 14.4488 102.667C9.20437 107.941 7.54979 116.103 10.3445 122.99C15.086 134.677 28.9132 138.49 38.7823 131.859C43.3835 128.772 46.2074 124.025 46.9909 118.95C47.9146 112.975 51.7091 107.83 56.7313 104.456L62.648 100.487C69.8685 95.6398 79.2991 95.6398 86.5196 100.487L92.4364 104.456C97.4528 107.824 101.247 112.975 102.177 118.95C102.96 124.025 105.784 128.772 110.385 131.859C120.26 138.49 134.093 134.672 138.829 122.978C141.618 116.085 139.957 107.923 134.707 102.656L134.69 102.662Z" fill="white"/>
</svg>
