<svg width="150" height="150" viewBox="0 0 150 150" fill="none" xmlns="http://www.w3.org/2000/svg">
<g clip-path="url(#clip0_829_3112)">
<path d="M92.2265 75.3314C92.2265 84.8437 84.5123 92.5579 75.0061 92.5579C65.5 92.5579 57.7796 84.8437 57.7796 75.3314C57.7796 65.8191 65.4938 58.111 75.0061 58.111C84.5185 58.111 92.2265 65.8252 92.2265 75.3314ZM150 72.2629V77.7371H123.053C121.844 102.285 102.242 121.991 77.7371 123.366V150H72.2629V123.366C47.758 121.991 28.1564 102.285 26.9474 77.7371H0V72.2629H26.9966C28.5247 48.028 47.985 28.6658 72.2629 27.3034V0H77.7371V27.3034C102.015 28.6658 121.475 48.028 123.003 72.2629H150ZM117.64 75.3314C117.64 63.5484 112.871 52.9069 105.151 45.1804C97.4245 37.4601 86.783 32.6917 75 32.6917C63.217 32.6917 52.5754 37.4601 44.8489 45.1804C37.1286 52.9069 32.3603 63.5484 32.3603 75.3314C32.3603 87.1144 37.1286 97.756 44.8489 105.482C52.5754 113.203 63.217 117.971 75 117.971C86.783 117.971 97.4245 113.203 105.151 105.482C112.871 97.756 117.64 87.1144 117.64 75.3314Z" fill="white"/>
</g>
<defs>
<clipPath id="clip0_829_3112">
<rect width="150" height="150" fill="white"/>
</clipPath>
</defs>
</svg>
