<svg width="264" height="236" viewBox="0 0 264 236" fill="none" xmlns="http://www.w3.org/2000/svg">
<g clip-path="url(#clip0_1253_1511)">
<path d="M90.5586 67.4658H173.559V0.46582H263.559V191.686L187.549 235.466H75.5386L0.558594 190.966V0.46582H90.5586V67.4658ZM14.5586 14.4658V176.466H249.559V14.4658H187.559V81.4658H76.5586V14.4658H14.5586ZM103.139 102.016C103.809 102.016 104.349 102.566 104.349 103.256V154.626C104.349 155.316 103.809 155.866 103.139 155.866H77.7786C77.1086 155.866 76.5686 155.306 76.5686 154.626V103.266C76.5686 102.576 77.1086 102.026 77.7786 102.026H103.139V102.016ZM186.299 102.016C186.969 102.016 187.519 102.566 187.519 103.256V154.626C187.519 155.316 186.969 155.866 186.299 155.866H160.749C160.069 155.866 159.529 155.306 159.529 154.626V103.266C159.529 102.576 160.079 102.026 160.749 102.026H186.309L186.299 102.016Z" fill="#000310"/>
</g>
<defs>
<clipPath id="clip0_1253_1511">
<rect width="263" height="235" fill="white" transform="translate(0.558594 0.46582)"/>
</clipPath>
</defs>
</svg>
