<svg width="342" height="68" viewBox="0 0 342 68" fill="none" xmlns="http://www.w3.org/2000/svg">
<path d="M73.4405 67.4715V34.6233C73.3793 23.2478 73.3217 11.8687 73.2605 0.493178H138.078V18.138H90.5452V25.7001C105.021 25.6713 119.493 25.6461 133.969 25.6172V42.9776H90.8008V49.8483C106.559 49.8411 122.32 49.8339 138.078 49.8267V67.4715H73.4405Z" fill="#000310"/>
<path d="M251.128 0.460938H268.488V67.4715H251.128V0.460938Z" fill="#000310"/>
<path d="M291.481 33.9823C285.6 30.7414 279.716 27.5005 273.836 24.2597V0.493161H291.12V14.537C296.522 17.8967 301.923 21.26 307.325 24.6198C312.968 21.1376 318.607 17.6591 324.249 14.1769V0.493161C330.011 0.485959 335.773 0.475157 341.534 0.467955V24.2705C335.773 27.5077 330.011 30.745 324.249 33.9823C330.011 37.09 335.773 40.2012 341.534 43.3089V67.4715H324.249V53.0675C318.729 49.8267 313.205 46.5858 307.685 43.3449C302.165 46.7046 296.641 50.0679 291.12 53.4276V67.4715H273.836V43.3449C279.716 40.2228 285.6 37.1044 291.481 33.9823Z" fill="#000310"/>
<path d="M228.104 67.4715V24.1958L220.542 18.4981H203.738V67.4715H184.532V26.42L170.848 18.4981H160.765V67.4715H143.481C143.463 45.149 143.445 22.8229 143.427 0.500381H176.664L190.293 8.56914V0.493178H227.023L245.388 13.759V67.4715H228.104Z" fill="#000310"/>
<path d="M51.583 67.4715L27.7848 42.9814H17.9433V67.4715H0.583008V0.460938C18.6887 0.47174 36.7908 0.482543 54.8966 0.493346C59.2898 3.49297 63.683 6.49619 68.0762 9.49581C68.0762 14.8073 68.0762 20.1223 68.0762 25.4338C62.4766 30.8496 56.8735 36.2655 51.274 41.6814L59.351 49.852H68.0762V67.4715H51.583ZM50.7158 18.0049H17.9433V25.6174H50.7158V18.0049Z" fill="#000310"/>
</svg>
