<svg width="353" height="100" viewBox="0 0 353 100" fill="none" xmlns="http://www.w3.org/2000/svg">
<path d="M183.606 0.46582C185.768 2.0246 187.93 3.58673 190.092 5.14551V0.46582H235.128L250.98 12.1064V0.46582H302.141V17.7461C305.862 19.7873 309.588 21.825 313.31 23.8662C317.031 21.825 320.757 19.7873 324.479 17.7461V0.46582H352.581V31.7861C348.737 34.1873 344.896 36.5851 341.052 38.9863C344.896 41.0275 348.737 43.0643 352.581 45.1055V73.5459L320.155 99.4658L290.224 99.2861V92.0859L282.255 99.1064L73.3594 99.2861C70.8446 96.9461 68.3332 94.6056 65.8184 92.2656C65.8292 94.6056 65.8437 96.9461 65.8545 99.2861H26.7021C17.9941 90.225 9.28911 81.1676 0.581055 72.1064C0.642303 48.2852 0.70047 24.4668 0.761719 0.645508C22.0796 0.584308 43.394 0.52702 64.7119 0.46582C67.5942 2.38462 70.4771 4.30678 73.3594 6.22559V0.46582H183.606ZM195.729 5.6875V13.7627L182.089 5.69434H148.826C148.844 28.0167 148.862 50.3427 148.88 72.665H166.179V23.6924H176.269L189.964 31.6143V72.665H209.186V23.6924H226.002L233.57 29.3896V72.665H250.868V18.9531L232.489 5.6875H195.729ZM5.86914 72.3125H23.2432V48.1758H33.0918L56.9707 72.3125H73.415V55.0459H64.6836L56.5996 46.875C62.2035 41.4592 67.8112 36.0437 73.415 30.6279V14.6895C69.0186 11.69 64.6221 8.68697 60.2256 5.6875C42.1056 5.6767 23.9891 5.66608 5.86914 5.65527V72.3125ZM256.612 5.65527V72.3125H273.987V5.65527H256.612ZM78.6035 5.6875C78.6648 17.0629 78.7229 28.442 78.7842 39.8174V72.3057H143.473V55.0205C127.702 55.0277 111.928 55.0348 96.1582 55.042V48.1719H139.361V30.8115C124.874 30.8403 110.39 30.8657 95.9023 30.8945V23.332H143.473V5.6875H78.6035ZM329.792 5.6875V19.3711C324.145 22.8531 318.501 26.3315 312.854 29.8135C307.449 26.4538 302.042 23.0912 296.637 19.7314V5.6875H279.339V29.4541C285.224 32.6949 291.112 35.936 296.997 39.1768C291.112 42.2987 285.224 45.4171 279.339 48.5391V72.3057H296.637V58.6221C302.161 55.2624 307.69 51.8988 313.215 48.5391C318.739 51.7799 324.267 55.0209 329.792 58.2617V72.3057H347.091V48.5029C341.325 45.3953 335.558 42.2844 329.792 39.1768C335.558 35.9395 341.325 32.7021 347.091 29.4648V5.66211C341.325 5.66931 335.558 5.6803 329.792 5.6875ZM56.041 23.1992V30.8115H23.2432V23.1992H56.041Z" fill="#B6FF00"/>
</svg>
