<svg width="263" height="236" viewBox="0 0 263 236" fill="none" xmlns="http://www.w3.org/2000/svg">
<g clip-path="url(#clip0_1253_1514)">
<path d="M90 67.7324H173V0.732422H263V191.952L186.99 235.732H74.98L0 191.232V0.732422H90V67.7324ZM14 14.7324V176.732H249V14.7324H187V81.7324H76V14.7324H14ZM102.58 102.282C103.25 102.282 103.79 102.832 103.79 103.522V154.892C103.79 155.582 103.25 156.132 102.58 156.132H77.22C76.55 156.132 76.01 155.572 76.01 154.892V103.532C76.01 102.842 76.55 102.292 77.22 102.292H102.58V102.282ZM185.74 102.282C186.41 102.282 186.96 102.832 186.96 103.522V154.892C186.96 155.582 186.41 156.132 185.74 156.132H160.19C159.51 156.132 158.97 155.572 158.97 154.892V103.532C158.97 102.842 159.52 102.292 160.19 102.292H185.75L185.74 102.282Z" fill="#B6FF00"/>
</g>
<defs>
<clipPath id="clip0_1253_1514">
<rect width="263" height="235" fill="white" transform="translate(0 0.732422)"/>
</clipPath>
</defs>
</svg>
