<svg width="341" height="68" viewBox="0 0 341 68" fill="none" xmlns="http://www.w3.org/2000/svg">
<path d="M72.9064 67.4715V34.6233C72.8451 23.2478 72.7875 11.8687 72.7263 0.493178H137.544V18.138H90.011V25.7001C104.487 25.6713 118.959 25.6461 133.435 25.6172V42.9776H90.2667V49.8483C106.025 49.8411 121.786 49.8339 137.544 49.8267V67.4715H72.9064Z" fill="white"/>
<path d="M250.594 0.460938H267.954V67.4715H250.594V0.460938Z" fill="white"/>
<path d="M290.946 33.9823C285.066 30.7414 279.182 27.5005 273.302 24.2597V0.493161H290.586V14.537C295.988 17.8967 301.389 21.26 306.791 24.6198C312.433 21.1376 318.073 17.6591 323.715 14.1769V0.493161C329.477 0.485959 335.238 0.475157 341 0.467955V24.2705C335.238 27.5077 329.477 30.745 323.715 33.9823C329.477 37.09 335.238 40.2012 341 43.3089V67.4715H323.715V53.0675C318.195 49.8267 312.671 46.5858 307.151 43.3449C301.631 46.7046 296.107 50.0679 290.586 53.4276V67.4715H273.302V43.3449C279.182 40.2228 285.066 37.1044 290.946 33.9823Z" fill="white"/>
<path d="M227.569 67.4715V24.1958L220.007 18.4981H203.204V67.4715H183.998V26.42L170.314 18.4981H160.231V67.4715H142.946C142.928 45.149 142.91 22.8229 142.892 0.500381H176.129L189.759 8.56914V0.493178H226.489L244.854 13.759V67.4715H227.569Z" fill="white"/>
<path d="M51.0488 67.4715L27.2506 42.9814H17.4091V67.4715H0.0488281V0.460938C18.1545 0.47174 36.2567 0.482543 54.3624 0.493346C58.7556 3.49297 63.1488 6.49619 67.542 9.49581C67.542 14.8073 67.542 20.1223 67.542 25.4338C61.9425 30.8496 56.3393 36.2655 50.7398 41.6814L58.8168 49.852H67.542V67.4715H51.0488ZM50.1817 18.0049H17.4091V25.6174H50.1817V18.0049Z" fill="white"/>
</svg>
