<svg width="264" height="236" viewBox="0 0 264 236" fill="none" xmlns="http://www.w3.org/2000/svg">
<g clip-path="url(#clip0_1253_1508)">
<path d="M90.0244 67.9658H173.024V0.96582H263.024V192.186L187.014 235.966H75.0044L0.0244141 191.466V0.96582H90.0244V67.9658ZM14.0244 14.9658V176.966H249.024V14.9658H187.024V81.9658H76.0244V14.9658H14.0244ZM102.604 102.516C103.274 102.516 103.814 103.066 103.814 103.756V155.126C103.814 155.816 103.274 156.366 102.604 156.366H77.2444C76.5744 156.366 76.0344 155.806 76.0344 155.126V103.766C76.0344 103.076 76.5744 102.526 77.2444 102.526H102.604V102.516ZM185.764 102.516C186.434 102.516 186.984 103.066 186.984 103.756V155.126C186.984 155.816 186.434 156.366 185.764 156.366H160.214C159.534 156.366 158.994 155.806 158.994 155.126V103.766C158.994 103.076 159.544 102.526 160.214 102.526H185.774L185.764 102.516Z" fill="white"/>
</g>
<defs>
<clipPath id="clip0_1253_1508">
<rect width="263" height="235" fill="white" transform="translate(0.0244141 0.96582)"/>
</clipPath>
</defs>
</svg>
