<svg width="353" height="100" viewBox="0 0 353 100" fill="none" xmlns="http://www.w3.org/2000/svg">
<path d="M183.072 0.46582C185.234 2.0246 187.396 3.58673 189.558 5.14551V0.46582H234.594L250.446 12.1064V0.46582H301.606V17.7461C305.328 19.7873 309.054 21.825 312.775 23.8662C316.497 21.825 320.223 19.7873 323.944 17.7461V0.46582H352.047V31.7861C348.203 34.1873 344.362 36.5851 340.518 38.9863C344.362 41.0275 348.203 43.0643 352.047 45.1055V73.5459L319.621 99.4658L289.689 99.2861V92.0859L281.721 99.1064L72.8252 99.2861C70.3104 96.9461 67.799 94.6056 65.2842 92.2656C65.295 94.6056 65.3095 96.9461 65.3203 99.2861H26.168C17.4599 90.225 8.75493 81.1676 0.046875 72.1064C0.108124 48.2852 0.16629 24.4668 0.227539 0.645508C21.5455 0.584308 42.8598 0.52702 64.1777 0.46582C67.06 2.38462 69.9429 4.30678 72.8252 6.22559V0.46582H183.072ZM195.195 5.6875V13.7627L181.555 5.69434H148.292C148.31 28.0167 148.328 50.3427 148.346 72.665H165.645V23.6924H175.734L189.43 31.6143V72.665H208.651V23.6924H225.468L233.036 29.3896V72.665H250.334V18.9531L231.955 5.6875H195.195ZM5.33496 72.3125H22.709V48.1758H32.5576L56.4365 72.3125H72.8809V55.0459H64.1494L56.0654 46.875C61.6693 41.4592 67.277 36.0437 72.8809 30.6279V14.6895C68.4844 11.69 64.0879 8.68697 59.6914 5.6875C41.5714 5.6767 23.4549 5.66608 5.33496 5.65527V72.3125ZM256.078 5.65527V72.3125H273.453V5.65527H256.078ZM78.0693 5.6875C78.1306 17.0629 78.1887 28.442 78.25 39.8174V72.3057H142.938V55.0205C127.168 55.0277 111.394 55.0348 95.624 55.042V48.1719H138.827V30.8115C124.34 30.8403 109.856 30.8657 95.3682 30.8945V23.332H142.938V5.6875H78.0693ZM329.258 5.6875V19.3711C323.611 22.8531 317.967 26.3315 312.32 29.8135C306.915 26.4538 301.508 23.0912 296.103 19.7314V5.6875H278.805V29.4541C284.69 32.6949 290.578 35.936 296.463 39.1768C290.578 42.2987 284.69 45.4171 278.805 48.5391V72.3057H296.103V58.6221C301.627 55.2624 307.156 51.8988 312.681 48.5391C318.205 51.7799 323.733 55.0209 329.258 58.2617V72.3057H346.557V48.5029C340.79 45.3953 335.024 42.2844 329.258 39.1768C335.024 35.9395 340.791 32.7021 346.557 29.4648V5.66211C340.79 5.66931 335.024 5.6803 329.258 5.6875ZM55.5068 23.1992V30.8115H22.709V23.1992H55.5068Z" fill="white"/>
</svg>
