<svg width="76" height="76" viewBox="0 0 76 76" fill="none" xmlns="http://www.w3.org/2000/svg">
<path d="M21.3747 34.0417C19.1885 34.0417 17.4163 35.8139 17.4163 38C17.4163 40.1861 19.1885 41.9583 21.3747 41.9583C23.5608 41.9583 25.333 40.1861 25.333 38C25.333 35.8139 23.5608 34.0417 21.3747 34.0417Z" fill="white"/>
<path d="M50.6663 38C50.6663 35.8139 52.4385 34.0417 54.6247 34.0417C56.8108 34.0417 58.583 35.8139 58.583 38C58.583 40.1861 56.8108 41.9583 54.6247 41.9583C52.4385 41.9583 50.6663 40.1861 50.6663 38Z" fill="white"/>
<path fill-rule="evenodd" clip-rule="evenodd" d="M37.9997 29.2917C33.1902 29.2917 29.2913 33.1905 29.2913 38C29.2913 42.8095 33.1902 46.7083 37.9997 46.7083C42.8092 46.7083 46.708 42.8095 46.708 38C46.708 33.1905 42.8092 29.2917 37.9997 29.2917ZM35.6247 38C35.6247 36.6883 36.688 35.625 37.9997 35.625C39.3114 35.625 40.3747 36.6883 40.3747 38C40.3747 39.3117 39.3114 40.375 37.9997 40.375C36.688 40.375 35.6247 39.3117 35.6247 38Z" fill="white"/>
<path fill-rule="evenodd" clip-rule="evenodd" d="M69.6663 19H6.33301V57H69.6663V19ZM12.6663 50.6667V25.3333H63.333V50.6667H12.6663Z" fill="white"/>
</svg>
