<svg width="76" height="76" viewBox="0 0 76 76" fill="none" xmlns="http://www.w3.org/2000/svg">
<path d="M36.0208 12.6668C29.3759 12.6668 23.817 17.3482 22.4755 23.5952L22.1217 25.2427L20.5577 25.8697C17.7835 26.9818 15.8333 29.6942 15.8333 32.8543C15.8333 37.008 19.2005 40.3752 23.3542 40.3752C24.7901 40.3752 26.1231 39.9758 27.259 39.2838L28.5 38.5278V45.7204C26.907 46.358 25.1692 46.7085 23.3542 46.7085C15.7027 46.7085 9.5 40.5058 9.5 32.8543C9.5 27.6172 12.4051 23.0647 16.6831 20.71C19.1794 12.3939 26.8891 6.3335 36.0208 6.3335C41.8306 6.3335 47.0684 8.79079 50.7478 12.7134C59.5557 13.3624 66.5 20.7141 66.5 29.6877C66.5 39.088 58.8795 46.7085 49.4792 46.7085C48.8102 46.7085 48.1497 46.6698 47.5 46.5944V40.1928C48.1404 40.3125 48.8018 40.3752 49.4792 40.3752C55.3817 40.3752 60.1667 35.5902 60.1667 29.6877C60.1667 23.7851 55.3817 19.0002 49.4792 19.0002C49.4249 19.0002 49.3708 19.0006 49.3168 19.0014L47.775 19.0242L46.8063 17.8246C44.2615 14.6733 40.3766 12.6668 36.0208 12.6668Z" fill="white"/>
<path d="M41.1667 58.855V28.5002H34.8333L34.8333 58.855L29.6875 53.7092L25.2092 58.1875L38 70.9784L50.7908 58.1875L46.3125 53.7092L41.1667 58.855Z" fill="white"/>
</svg>
