<svg width="76" height="76" viewBox="0 0 76 76" fill="none" xmlns="http://www.w3.org/2000/svg">
<path d="M37.9997 33.2497C35.3763 33.2497 33.2497 35.3763 33.2497 37.9997C33.2497 40.623 35.3763 42.7497 37.9997 42.7497C40.623 42.7497 42.7497 40.623 42.7497 37.9997C42.7497 35.3763 40.623 33.2497 37.9997 33.2497Z" fill="white"/>
<path fill-rule="evenodd" clip-rule="evenodd" d="M41.1663 6.33301V12.8623C52.6256 14.2913 61.7081 23.3737 63.137 34.833H69.6663V41.1663H63.137C61.7081 52.6256 52.6256 61.7081 41.1663 63.137V69.6663H34.833V63.137C23.3737 61.7081 14.2913 52.6256 12.8623 41.1663H6.33301V34.833H12.8623C14.2913 23.3737 23.3737 14.2913 34.833 12.8623V6.33301L41.1663 6.33301ZM19.2624 41.1663H25.333V34.833H19.2624C20.5972 26.8767 26.8767 20.5972 34.833 19.2624V25.333H41.1663V19.2624C49.1226 20.5972 55.4022 26.8767 56.737 34.833H50.6663V41.1663H56.737C55.4022 49.1226 49.1226 55.4022 41.1663 56.737V50.6663H34.833V56.737C26.8767 55.4022 20.5972 49.1226 19.2624 41.1663Z" fill="white"/>
</svg>
