<svg width="76" height="76" viewBox="0 0 76 76" fill="none" xmlns="http://www.w3.org/2000/svg">
<path d="M23.7497 30.0835H18.9997V36.4168H23.7497V41.1668H30.083V36.4168H34.833V30.0835H30.083V25.3335H23.7497V30.0835Z" fill="white"/>
<path d="M45.7243 25.413L49.083 28.7717L52.4418 25.413L56.9201 29.8914L53.5614 33.2501L56.9201 36.6088L52.4418 41.0872L49.083 37.7284L45.7243 41.0872L41.2459 36.6089L44.6047 33.2501L41.2459 29.8913L45.7243 25.413Z" fill="white"/>
<path fill-rule="evenodd" clip-rule="evenodd" d="M41.1663 12.6668V6.3335H34.833V12.6668H6.33301V66.5002H22.31L33.71 53.8335H42.2894L53.6894 66.5002H69.6663V12.6668H41.1663ZM12.6663 60.1668V19.0002H63.333V60.1668H56.51L45.11 47.5002H30.8894L19.4894 60.1668H12.6663Z" fill="white"/>
</svg>
