<svg width="75" height="75" viewBox="0 0 75 75" fill="none" xmlns="http://www.w3.org/2000/svg">
<path fill-rule="evenodd" clip-rule="evenodd" d="M37.5 6.40784C39.4852 4.38198 42.252 3.125 45.3125 3.125C51.3531 3.125 56.25 8.02189 56.25 14.0625C56.25 15.74 55.8724 17.3293 55.1975 18.75H68.75V43.75H65.625V68.75H9.375V43.75H6.25V18.75H19.8025C19.1276 17.3293 18.75 15.74 18.75 14.0625C18.75 8.02189 23.6469 3.125 29.6875 3.125C32.748 3.125 35.5148 4.38198 37.5 6.40784ZM34.375 14.0625C34.375 11.4737 32.2763 9.375 29.6875 9.375C27.0987 9.375 25 11.4737 25 14.0625C25 16.6513 27.0987 18.75 29.6875 18.75C32.2763 18.75 34.375 16.6513 34.375 14.0625ZM12.5 25V37.5H34.375V25H12.5ZM50 14.0625C50 16.6513 47.9013 18.75 45.3125 18.75C42.7237 18.75 40.625 16.6513 40.625 14.0625C40.625 11.4737 42.7237 9.375 45.3125 9.375C47.9013 9.375 50 11.4737 50 14.0625ZM40.625 25H62.5V37.5H40.625V25ZM40.625 43.75V62.5H59.375V43.75H40.625ZM34.375 43.75H15.625V62.5H34.375V43.75Z" fill="white"/>
</svg>
