<svg width="76" height="76" viewBox="0 0 76 76" fill="none" xmlns="http://www.w3.org/2000/svg">
<path fill-rule="evenodd" clip-rule="evenodd" d="M38.0003 20.583C31.8792 20.583 26.917 25.5452 26.917 31.6663C26.917 37.7875 31.8792 42.7497 38.0003 42.7497C44.1215 42.7497 49.0837 37.7875 49.0837 31.6663C49.0837 25.5452 44.1215 20.583 38.0003 20.583ZM33.2503 31.6663C33.2503 29.043 35.377 26.9163 38.0003 26.9163C40.6237 26.9163 42.7503 29.043 42.7503 31.6663C42.7503 34.2897 40.6237 36.4163 38.0003 36.4163C35.377 36.4163 33.2503 34.2897 33.2503 31.6663Z" fill="#B6FF00"/>
<path fill-rule="evenodd" clip-rule="evenodd" d="M38.0003 6.33301C24.0091 6.33301 12.667 17.6751 12.667 31.6663C12.667 36.3281 14.2853 41.0023 16.486 45.2464C18.7009 49.518 21.6173 53.5665 24.4725 57.0336C27.3356 60.5101 30.1897 63.4653 32.3248 65.5495C33.3942 66.5935 34.2881 67.4237 34.9189 67.9966C35.2344 68.2831 35.4845 68.5056 35.6581 68.6586C35.745 68.7351 35.8127 68.7942 35.8601 68.8353C35.8749 68.8482 35.8877 68.8593 35.8984 68.8686L35.9156 68.8834L35.9383 68.9029C35.9389 68.9035 35.9395 68.904 38.0003 66.4997L35.9395 68.904L38.0003 70.6704L40.0612 68.904L38.0003 66.4997C40.0612 68.904 40.0617 68.9035 40.0624 68.9029L40.0851 68.8834L40.1054 68.8658C40.1155 68.8571 40.1272 68.8469 40.1406 68.8353C40.1879 68.7942 40.2557 68.7351 40.3425 68.6586C40.5162 68.5056 40.7662 68.2831 41.0817 67.9966C41.7125 67.4237 42.6064 66.5935 43.6759 65.5495C45.8109 63.4653 48.6651 60.5101 51.5281 57.0336C54.3834 53.5665 57.2998 49.518 59.5147 45.2464C61.7153 41.0023 63.3337 36.3281 63.3337 31.6663C63.3337 17.6751 51.9915 6.33301 38.0003 6.33301ZM39.2518 61.0175C38.7974 61.4612 38.3776 61.8628 38.0003 62.2186C37.623 61.8628 37.2033 61.4612 36.7488 61.0175C34.7276 59.0444 32.0401 56.2601 29.3614 53.0074C26.675 49.7454 24.0498 46.0751 22.1084 42.3311C20.1528 38.5595 19.0003 34.9213 19.0003 31.6663C19.0003 21.1729 27.5069 12.6663 38.0003 12.6663C48.4937 12.6663 57.0003 21.1729 57.0003 31.6663C57.0003 34.9213 55.8478 38.5595 53.8922 42.3311C51.9509 46.0751 49.3256 49.7454 46.6392 53.0074C43.9606 56.2601 41.2731 59.0444 39.2518 61.0175Z" fill="#B6FF00"/>
</svg>
