<svg width="76" height="76" viewBox="0 0 76 76" fill="none" xmlns="http://www.w3.org/2000/svg">
<path d="M63.3333 37.9997C63.3333 24.0085 51.9911 12.6663 37.9999 12.6663V6.33301C55.4889 6.33301 69.6666 20.5107 69.6666 37.9997C69.6666 55.4887 55.4889 69.6663 37.9999 69.6663C20.5109 69.6663 6.33327 55.4887 6.33327 37.9997C6.33327 29.6234 9.58667 22.0083 14.8927 16.3476L4.8291 16.3476L4.8291 10.0143L26.9958 10.0143V32.1809H20.6624L20.6624 19.5278C15.7374 24.1519 12.6666 30.718 12.6666 37.9997C12.6666 51.9909 24.0087 63.333 37.9999 63.333C51.9911 63.333 63.3333 51.9909 63.3333 37.9997Z" fill="white"/>
</svg>
