<svg width="76" height="76" viewBox="0 0 76 76" fill="none" xmlns="http://www.w3.org/2000/svg">
<path d="M23.7936 38.94C20.2214 36.6166 16.6464 34.2958 13.0741 31.9724V14.0172H26.2055V25.8087C30.2253 28.4001 34.2451 30.9889 38.2649 33.5803C42.3732 30.9889 46.4841 28.4001 50.5924 25.8087V14.0172H46.8144L56.6075 3L67.6247 14.0172H63.7237V31.9724C60.1515 34.2047 56.5765 36.4397 53.0042 38.6721C56.5765 40.9955 60.1515 43.3163 63.7237 45.6397V63.5948H50.8603V52.0714C46.661 49.3915 42.4643 46.7117 38.2649 44.0318C34.2451 46.6232 30.2253 49.212 26.2055 51.8034V63.5948H30.2216L19.8834 74L9 63.5948H13.0741V45.6397C16.6464 43.4074 20.2214 41.1724 23.7936 38.94Z" fill="white"/>
</svg>
