<svg width="76" height="76" viewBox="0 0 76 76" fill="none" xmlns="http://www.w3.org/2000/svg">
<path d="M51.3767 24.6214C49.8309 23.0756 47.3246 23.0756 45.7788 24.6214C44.2329 26.1672 44.2329 28.6735 45.7788 30.2193C47.3246 31.7651 49.8309 31.7651 51.3767 30.2193C52.9225 28.6735 52.9225 26.1672 51.3767 24.6214Z" fill="#B6FF00"/>
<path fill-rule="evenodd" clip-rule="evenodd" d="M67.2765 8.72168L64.4751 33.9343L56.0205 42.1816L60.1215 56.1817L45.7788 70.5245L36.4886 61.2344L29.1494 68.3936L6.75736 46.0015L14.0966 38.8423L5.47363 30.2193L19.8164 15.8766L33.5236 19.8918L42.1077 11.5182L67.2765 8.72168ZM41.0226 56.8116L50.8877 47.1885L52.988 54.3586L45.7788 61.5678L41.0226 56.8116ZM28.3206 24.9672L18.6305 34.4196L14.4303 30.2193L21.6396 23.0101L28.3206 24.9672ZM44.9714 17.5723L15.77 46.0575L29.2047 59.4922L58.4308 30.9829L60.1077 15.8905L44.9714 17.5723Z" fill="#B6FF00"/>
</svg>
