<svg width="76" height="76" viewBox="0 0 76 76" fill="none" xmlns="http://www.w3.org/2000/svg">
<path d="M34.3973 48.8051L53.087 30.1687L48.6151 25.684L34.3973 39.8612L27.3856 32.8696L22.9137 37.3543L34.3973 48.8051Z" fill="white"/>
<path fill-rule="evenodd" clip-rule="evenodd" d="M49.5149 10.9895L38.0003 6.05469L26.4858 10.9895L12.667 9.01539V37.6826C12.667 48.8045 18.6487 59.0669 28.3262 64.548L38.2123 70.1472L47.8806 64.5726C57.4421 59.0597 63.3337 48.8621 63.3337 37.8251V9.01539L49.5149 10.9895ZM27.3482 17.5103L38.0003 12.9451L48.6524 17.5103L57.0003 16.3178V37.8251C57.0003 46.5981 52.3173 54.7039 44.7172 59.0859L38.1842 62.8527L31.4474 59.0371C23.755 54.6804 19.0003 46.5231 19.0003 37.6826V16.3178L27.3482 17.5103Z" fill="white"/>
</svg>
