<svg width="76" height="76" viewBox="0 0 76 76" fill="none" xmlns="http://www.w3.org/2000/svg">
<path fill-rule="evenodd" clip-rule="evenodd" d="M18.9997 19.5406V9.5H12.6663V19.5406C8.97657 20.8447 6.33301 24.3636 6.33301 28.5C6.33301 32.6364 8.97657 36.1553 12.6663 37.4594V66.5H18.9997V37.4594C22.6895 36.1553 25.333 32.6364 25.333 28.5C25.333 24.3636 22.6895 20.8447 18.9997 19.5406ZM12.6663 28.5C12.6663 26.7511 14.0841 25.3333 15.833 25.3333C17.5819 25.3333 18.9997 26.7511 18.9997 28.5C18.9997 30.2489 17.5819 31.6667 15.833 31.6667C14.0841 31.6667 12.6663 30.2489 12.6663 28.5Z" fill="#B6FF00"/>
<path fill-rule="evenodd" clip-rule="evenodd" d="M34.833 41.7072C31.1432 43.0114 28.4997 46.5303 28.4997 50.6667C28.4997 54.803 31.1432 58.3219 34.833 59.6261V66.5H41.1663V59.6261C44.8561 58.3219 47.4997 54.803 47.4997 50.6667C47.4997 46.5303 44.8561 43.0114 41.1663 41.7072V9.5H34.833V41.7072ZM34.833 50.6667C34.833 48.9178 36.2508 47.5 37.9997 47.5C39.7486 47.5 41.1663 48.9178 41.1663 50.6667C41.1663 52.4156 39.7486 53.8333 37.9997 53.8333C36.2508 53.8333 34.833 52.4156 34.833 50.6667Z" fill="#B6FF00"/>
<path fill-rule="evenodd" clip-rule="evenodd" d="M63.333 25.8739V9.5H56.9997V25.8739C53.3099 27.178 50.6663 30.697 50.6663 34.8333C50.6663 38.9697 53.3099 42.4886 56.9997 43.7928V66.5H63.333V43.7928C67.0228 42.4886 69.6663 38.9697 69.6663 34.8333C69.6663 30.697 67.0228 27.178 63.333 25.8739ZM56.9997 34.8333C56.9997 33.0844 58.4174 31.6667 60.1663 31.6667C61.9152 31.6667 63.333 33.0844 63.333 34.8333C63.333 36.5822 61.9152 38 60.1663 38C58.4174 38 56.9997 36.5822 56.9997 34.8333Z" fill="#B6FF00"/>
</svg>
