<svg width="76" height="76" viewBox="0 0 76 76" fill="none" xmlns="http://www.w3.org/2000/svg">
<path d="M38.0007 50.6663C33.187 50.6663 28.9954 47.9823 26.8495 44.0142L21.2786 47.0268C24.4865 52.9588 30.7693 56.9997 38.0007 56.9997C45.232 56.9997 51.5148 52.9588 54.7227 47.0268L49.1518 44.0142C47.0059 47.9823 42.8143 50.6663 38.0007 50.6663Z" fill="#B6FF00"/>
<path fill-rule="evenodd" clip-rule="evenodd" d="M38.0007 6.33301C20.5116 6.33301 6.33398 20.5107 6.33398 37.9997C6.33398 55.4887 20.5116 69.6663 38.0007 69.6663C55.4897 69.6663 69.6673 55.4887 69.6673 37.9997C69.6673 20.5107 55.4897 6.33301 38.0007 6.33301ZM12.6673 37.9997C12.6673 24.0085 24.0094 12.6663 38.0007 12.6663C51.9919 12.6663 63.334 24.0085 63.334 37.9997C63.334 51.9909 51.9919 63.333 38.0007 63.333C24.0094 63.333 12.6673 51.9909 12.6673 37.9997Z" fill="#B6FF00"/>
<path d="M27.9268 23.9873C27.7612 23.9873 27.6268 24.1217 27.6268 24.2873L27.6268 33.2C27.6268 33.3657 27.7612 33.5 27.9268 33.5L33.2 33.5C33.3657 33.5 33.5 33.3657 33.5 33.2L33.5 24.2873C33.5 24.1217 33.3657 23.9873 33.2 23.9873L27.9268 23.9873Z" fill="#B6FF00"/>
<path d="M42.3 23.9873C42.1343 23.9873 42 24.1217 42 24.2873L42 33.2C42 33.3657 42.1343 33.5 42.3 33.5L47.5732 33.5C47.7388 33.5 47.8732 33.3657 47.8732 33.2V24.2873C47.8732 24.1217 47.7388 23.9873 47.5732 23.9873L42.3 23.9873Z" fill="#B6FF00"/>
</svg>
