<svg width="76" height="76" viewBox="0 0 76 76" fill="none" xmlns="http://www.w3.org/2000/svg">
<path d="M50.6663 50.6663V44.333H25.333V50.6663H50.6663Z" fill="white"/>
<path d="M25.333 30.8747C25.333 28.6885 27.1052 26.9163 29.2913 26.9163C31.4775 26.9163 33.2497 28.6885 33.2497 30.8747C33.2497 33.0608 31.4775 34.833 29.2913 34.833C27.1052 34.833 25.333 33.0608 25.333 30.8747Z" fill="white"/>
<path d="M46.708 26.9163C44.5219 26.9163 42.7497 28.6885 42.7497 30.8747C42.7497 33.0608 44.5219 34.833 46.708 34.833C48.8941 34.833 50.6663 33.0608 50.6663 30.8747C50.6663 28.6885 48.8941 26.9163 46.708 26.9163Z" fill="white"/>
<path fill-rule="evenodd" clip-rule="evenodd" d="M37.9997 6.33301C20.5107 6.33301 6.33301 20.5107 6.33301 37.9997C6.33301 55.4887 20.5107 69.6663 37.9997 69.6663C55.4887 69.6663 69.6663 55.4887 69.6663 37.9997C69.6663 20.5107 55.4887 6.33301 37.9997 6.33301ZM12.6663 37.9997C12.6663 24.0085 24.0085 12.6663 37.9997 12.6663C51.9909 12.6663 63.333 24.0085 63.333 37.9997C63.333 51.9909 51.9909 63.333 37.9997 63.333C24.0085 63.333 12.6663 51.9909 12.6663 37.9997Z" fill="white"/>
</svg>
