<svg width="77" height="77" viewBox="0 0 77 77" fill="none" xmlns="http://www.w3.org/2000/svg">
<path fill-rule="evenodd" clip-rule="evenodd" d="M8.26709 71.7334L3.13511 66.5388L18.3902 50.3499L15.2814 41.3104L17.1491 39.5947L21.8292 44.3319L62.9264 5L73.4454 5.24594L73.1904 15.3893L31.909 54.5348L36.7115 59.3959L34.8438 61.1116L25.146 57.1882L8.26709 71.7334ZM10.844 67.7937L13.6881 65.4392L9.73152 61.4344L7.24611 64.1519L10.844 67.7937ZM48.5225 22.6694L54.781 29.0043L69.5087 13.8169L69.6362 8.7452L64.3767 8.62224L48.5225 22.6694Z" fill="white"/>
<path fill-rule="evenodd" clip-rule="evenodd" d="M68.1783 71.7334L73.3103 66.5388L58.0552 50.3499L61.164 41.3104L59.2963 39.5947L54.6162 44.3319L13.519 5L3 5.24594L3.25505 15.3893L44.5365 54.5348L39.734 59.3959L41.6016 61.1116L51.2994 57.1882L68.1783 71.7334ZM65.6014 67.7937L62.7574 65.4392L66.7139 61.4344L69.1993 64.1519L65.6014 67.7937ZM27.9229 22.6694L21.6644 29.0043L6.93674 13.8169L6.80921 8.7452L12.0687 8.62224L27.9229 22.6694Z" fill="white"/>
</svg>
