<svg width="221" height="217" viewBox="0 0 221 217" fill="none" xmlns="http://www.w3.org/2000/svg">
<path d="M80.7176 64.8953C115.419 39.7925 161.07 44.4582 181.072 72.1091C200.918 99.5437 188.402 141.167 153.433 166.463C118.559 191.691 76.2144 189.433 56.3148 161.924C36.3117 134.272 46.0174 89.9971 80.7176 64.8953Z" stroke="url(#paint0_linear_1191_459)" stroke-width="6.27923"/>
<path d="M175.247 57.8597C204.203 92.1739 196.724 133.665 156.443 166.355C114.969 196.936 69.9788 189.559 46.3312 159.481C22.6837 129.403 31.3568 79.4043 68.0814 52.838C104.806 26.2717 153.461 27.7432 175.247 57.8597Z" fill="url(#paint1_linear_1191_459)"/>
<path d="M68.8767 51.1385C104.626 25.2776 151.053 29.4708 171.013 57.0634C180.961 70.8151 182.607 88.117 177.23 105.388C171.846 122.681 159.44 139.796 141.579 152.716C105.656 178.703 62.5613 176.903 42.7015 149.449C22.7405 121.855 33.1283 76.9987 68.8767 51.1385Z" stroke="url(#paint2_linear_1191_459)" stroke-width="6.27923"/>
<path d="M72.028 55.8024C106.469 30.888 146.54 34.3634 162.992 57.1066C179.445 79.8498 170.205 118.995 135.764 143.909C101.323 168.824 61.2524 165.349 44.8002 142.606C28.3479 119.863 37.5871 80.7169 72.028 55.8024Z" fill="#FFD93B" stroke="url(#paint3_linear_1191_459)" stroke-width="17.4423"/>
<path d="M77.6508 64.0462C91.8023 53.8091 107.53 48.6716 121.477 48.5837C135.428 48.4958 147.475 53.4463 154.557 63.2367C161.639 73.0272 162.571 86.0179 158.122 99.2404C153.674 112.46 143.873 125.79 129.722 136.028C115.57 146.265 99.8419 151.401 85.8945 151.489C71.9438 151.577 59.8972 146.627 52.8148 136.836C45.7325 127.046 44.8007 114.055 49.2498 100.833C53.698 87.6132 63.4993 74.2832 77.6508 64.0462Z" stroke="url(#paint4_linear_1191_459)" stroke-width="2.79077"/>
<path d="M99.3747 98.0129C99.5054 98.0267 99.5751 98.138 99.5304 98.2616L96.1713 107.546C96.1266 107.67 95.9844 107.759 95.8537 107.745L90.8837 107.223C90.753 107.209 90.6831 107.097 90.7278 106.974L94.0869 97.6894C94.1317 97.5659 94.274 97.4768 94.4047 97.4906L99.3747 98.0129Z" fill="#DF9527"/>
<path d="M115.454 99.7029C115.585 99.7167 115.654 99.828 115.61 99.9516L112.251 109.236C112.206 109.36 112.064 109.449 111.933 109.435L106.963 108.913C106.832 108.899 106.762 108.787 106.807 108.664L110.166 99.3794C110.211 99.2559 110.353 99.1668 110.484 99.1805L115.454 99.7029Z" fill="#DF9527"/>
<path fill-rule="evenodd" clip-rule="evenodd" d="M99.3493 91.2503L115.368 92.9339L119.8 80.6839L137.193 82.512L124.532 117.507L106.919 123.972L85.2358 121.693L73.6689 112.024L86.2822 77.1611L103.781 79.0004L99.3493 91.2503ZM88.0587 80.0074L77.3266 109.671L122.823 114.453L133.555 84.7893L121.552 83.5277L117.116 95.7892L95.5386 93.5214L99.9748 81.2598L88.0587 80.0074Z" fill="#DF9527"/>
<path d="M73.9185 113L73.6689 112.024L85.2389 121.694L85.0071 122.335L73.9185 113Z" fill="url(#paint5_linear_1191_459)"/>
<path d="M106.916 123.972L85.2383 121.693L85.0065 122.334L106.684 124.612L106.916 123.972Z" fill="url(#paint6_linear_1191_459)"/>
<path d="M137.187 82.5117L124.54 117.466L124.762 117.964L137.344 82.9082L137.187 82.5117Z" fill="#F8E95F"/>
<path d="M124.54 117.466L106.917 123.972L106.685 124.613L124.762 117.964L124.54 117.466Z" fill="url(#paint7_linear_1191_459)"/>
<g filter="url(#filter0_f_1191_459)">
<path d="M182.619 95.6177L192.875 111.963C196.053 93.2864 189.105 78.338 186.374 74.191C184.213 70.1399 180.203 64.4494 175.481 58.2057C162.948 38.6124 136.53 21.1372 95.4623 34.1863C46.6183 50.9843 30.4282 90.568 28.6914 108.047L178.443 93.704L182.619 95.6177Z" fill="url(#paint8_linear_1191_459)" fill-opacity="0.3"/>
</g>
<defs>
<filter id="filter0_f_1191_459" x="27.5237" y="28.5051" width="167.334" height="84.6255" filterUnits="userSpaceOnUse" color-interpolation-filters="sRGB">
<feFlood flood-opacity="0" result="BackgroundImageFix"/>
<feBlend mode="normal" in="SourceGraphic" in2="BackgroundImageFix" result="shape"/>
<feGaussianBlur stdDeviation="0.583853" result="effect1_foregroundBlur_1191_459"/>
</filter>
<linearGradient id="paint0_linear_1191_459" x1="179.574" y1="64.6077" x2="72.3114" y2="185.188" gradientUnits="userSpaceOnUse">
<stop stop-color="#FDF8CE"/>
<stop offset="0.0550575" stop-color="#F2E158"/>
<stop offset="0.170676" stop-color="#FCF5AF"/>
<stop offset="0.309086" stop-color="#ECD42F"/>
<stop offset="0.491314" stop-color="#E9B00C"/>
<stop offset="0.704021" stop-color="#ECB600"/>
<stop offset="0.78935" stop-color="#E8CF29"/>
<stop offset="0.843399" stop-color="#EBD431"/>
<stop offset="0.909367" stop-color="#E2C317"/>
<stop offset="1" stop-color="#E9D14F"/>
</linearGradient>
<linearGradient id="paint1_linear_1191_459" x1="177.731" y1="65.3921" x2="59.1503" y2="185.139" gradientUnits="userSpaceOnUse">
<stop stop-color="#EEBB5C"/>
<stop offset="0.0550575" stop-color="#FDEE48"/>
<stop offset="0.170676" stop-color="#E8BB06"/>
<stop offset="0.309086" stop-color="#D57B01"/>
<stop offset="0.491314" stop-color="#C86101"/>
<stop offset="0.660555" stop-color="#D88C2D"/>
<stop offset="0.771761" stop-color="#E8BE29"/>
<stop offset="0.815114" stop-color="#E8BE29"/>
<stop offset="0.881945" stop-color="#E8AE0E"/>
<stop offset="0.930202" stop-color="#D98317"/>
<stop offset="1" stop-color="#EBAE4E"/>
</linearGradient>
<linearGradient id="paint2_linear_1191_459" x1="169.516" y1="49.5614" x2="60.1706" y2="173.921" gradientUnits="userSpaceOnUse">
<stop stop-color="#FDF8CE"/>
<stop offset="0.0550575" stop-color="#F2E158"/>
<stop offset="0.170676" stop-color="#FCF5AF"/>
<stop offset="0.309086" stop-color="#ECD42F"/>
<stop offset="0.491314" stop-color="#E9B00C"/>
<stop offset="0.704021" stop-color="#ECB600"/>
<stop offset="0.78935" stop-color="#E8CF29"/>
<stop offset="0.843399" stop-color="#EBD431"/>
<stop offset="0.909367" stop-color="#E2C317"/>
<stop offset="1" stop-color="#E9D14F"/>
</linearGradient>
<linearGradient id="paint3_linear_1191_459" x1="134.7" y1="28.8512" x2="81.5156" y2="171.05" gradientUnits="userSpaceOnUse">
<stop stop-color="#FFDC5E"/>
<stop offset="0.417119" stop-color="#FFED97"/>
<stop offset="1" stop-color="#FFF27B"/>
</linearGradient>
<linearGradient id="paint4_linear_1191_459" x1="77.5354" y1="60.0528" x2="134.791" y2="135.892" gradientUnits="userSpaceOnUse">
<stop stop-color="#E4991A"/>
<stop offset="0.474971" stop-color="#EAAA2E" stop-opacity="0"/>
<stop offset="1" stop-color="#FFF27B" stop-opacity="0"/>
</linearGradient>
<linearGradient id="paint5_linear_1191_459" x1="78.3496" y1="115.983" x2="78.6185" y2="115.632" gradientUnits="userSpaceOnUse">
<stop stop-color="#F8E95F"/>
<stop offset="1" stop-color="#CBBF4D"/>
</linearGradient>
<linearGradient id="paint6_linear_1191_459" x1="93.78" y1="123.351" x2="93.8502" y2="122.625" gradientUnits="userSpaceOnUse">
<stop stop-color="#F8E95F"/>
<stop offset="1" stop-color="#CBBF4D"/>
</linearGradient>
<linearGradient id="paint7_linear_1191_459" x1="115.359" y1="122.295" x2="114.88" y2="120.958" gradientUnits="userSpaceOnUse">
<stop stop-color="#F8E95F"/>
<stop offset="1" stop-color="#CBBF4D"/>
</linearGradient>
<linearGradient id="paint8_linear_1191_459" x1="83.2615" y1="101.611" x2="81.0736" y2="23.5748" gradientUnits="userSpaceOnUse">
<stop stop-color="white"/>
<stop offset="0.105858" stop-color="white"/>
<stop offset="0.21696" stop-color="white" stop-opacity="0.961194"/>
<stop offset="1" stop-color="white" stop-opacity="0"/>
</linearGradient>
</defs>
</svg>
