<svg width="221" height="217" viewBox="0 0 221 217" fill="none" xmlns="http://www.w3.org/2000/svg">
<path d="M140.674 151.708C105.972 176.811 60.322 172.145 40.3194 144.494C20.4734 117.06 32.9899 75.436 67.9584 50.14C102.832 24.9126 145.177 27.171 165.077 54.6797C185.08 82.3318 175.374 126.606 140.674 151.708Z" stroke="url(#paint0_linear_1191_497)" stroke-width="6.27923"/>
<path d="M46.1445 158.744C17.1889 124.43 24.6678 82.9388 64.9485 50.2483C106.423 19.6671 151.413 27.0444 175.06 57.1227C198.708 87.201 190.035 137.199 153.31 163.766C116.586 190.332 67.9306 188.86 46.1445 158.744Z" fill="url(#paint1_linear_1191_497)"/>
<path d="M152.515 165.464C116.765 191.325 70.3389 187.132 50.3785 159.539C40.4306 145.787 38.7842 128.486 44.1612 111.215C49.5453 93.9211 61.9521 76.8064 79.8128 63.8861C115.736 37.8996 158.83 39.6997 178.69 67.1534C198.651 94.7472 188.263 139.604 152.515 165.464Z" stroke="url(#paint2_linear_1191_497)" stroke-width="6.27923"/>
<path d="M149.364 160.8C114.922 185.715 74.8516 182.239 58.3993 159.496C41.947 136.753 51.1866 97.6077 85.6277 72.6932C120.069 47.779 160.139 51.2535 176.591 73.9966C193.044 96.7398 183.804 135.886 149.364 160.8Z" fill="#FFD93B" stroke="url(#paint3_linear_1191_497)" stroke-width="17.4423"/>
<path d="M143.741 152.557C129.589 162.794 113.862 167.932 99.9143 168.02C85.9636 168.108 73.917 163.157 66.8345 153.367C59.7521 143.576 58.8204 130.586 63.2696 117.363C67.7177 104.144 77.5184 90.8131 91.67 80.576C105.822 70.3388 121.55 65.2021 135.497 65.1143C149.448 65.0264 161.494 69.9767 168.577 79.7673C175.659 89.5578 176.591 102.549 172.142 115.771C167.694 128.99 157.892 142.32 143.741 152.557Z" stroke="url(#paint4_linear_1191_497)" stroke-width="2.79077"/>
<path d="M122.017 118.591C121.886 118.577 121.817 118.465 121.861 118.342L125.22 109.057C125.265 108.934 125.407 108.845 125.538 108.859L130.508 109.381C130.639 109.395 130.708 109.506 130.664 109.63L127.305 118.914C127.26 119.038 127.118 119.127 126.987 119.113L122.017 118.591Z" fill="#DF9527"/>
<path d="M105.938 116.901C105.807 116.887 105.737 116.775 105.782 116.652L109.141 107.367C109.186 107.244 109.328 107.155 109.459 107.169L114.429 107.691C114.56 107.705 114.629 107.816 114.585 107.94L111.226 117.224C111.181 117.348 111.039 117.437 110.908 117.423L105.938 116.901Z" fill="#DF9527"/>
<path fill-rule="evenodd" clip-rule="evenodd" d="M122.042 125.353L106.024 123.67L101.592 135.92L84.1991 134.091L96.8601 99.0969L114.473 92.631L136.156 94.91L147.723 104.579L135.109 139.442L117.61 137.603L122.042 125.353ZM133.333 136.596L144.065 106.933L98.5687 102.151L87.8365 131.814L99.8398 133.076L104.276 120.814L125.853 123.082L121.417 135.344L133.333 136.596Z" fill="#DF9527"/>
<path d="M147.473 103.603L147.723 104.579L136.153 94.9095L136.384 94.269L147.473 103.603Z" fill="url(#paint5_linear_1191_497)"/>
<path d="M114.476 92.6317L136.153 94.9102L136.385 94.2696L114.707 91.9912L114.476 92.6317Z" fill="url(#paint6_linear_1191_497)"/>
<path d="M84.2051 134.092L96.8516 99.1372L96.63 98.639L84.0472 133.695L84.2051 134.092Z" fill="#F8E95F"/>
<path d="M96.8516 99.1375L114.475 92.6312L114.707 91.9907L96.63 98.6393L96.8516 99.1375Z" fill="url(#paint7_linear_1191_497)"/>
<g filter="url(#filter0_f_1191_497)">
<path d="M38.7728 120.985L28.5163 104.64C25.3384 123.316 32.287 138.265 35.0178 142.412C37.1789 146.463 41.1883 152.153 45.9106 158.397C58.4433 177.99 84.8619 195.465 125.929 182.416C174.773 165.618 190.963 126.035 192.7 108.556L42.9481 122.899L38.7728 120.985Z" fill="url(#paint8_linear_1191_497)" fill-opacity="0.3"/>
</g>
<defs>
<filter id="filter0_f_1191_497" x="26.5335" y="103.472" width="167.334" height="84.6255" filterUnits="userSpaceOnUse" color-interpolation-filters="sRGB">
<feFlood flood-opacity="0" result="BackgroundImageFix"/>
<feBlend mode="normal" in="SourceGraphic" in2="BackgroundImageFix" result="shape"/>
<feGaussianBlur stdDeviation="0.583853" result="effect1_foregroundBlur_1191_497"/>
</filter>
<linearGradient id="paint0_linear_1191_497" x1="41.8174" y1="151.996" x2="149.08" y2="31.4152" gradientUnits="userSpaceOnUse">
<stop stop-color="#FDF8CE"/>
<stop offset="0.0550575" stop-color="#F2E158"/>
<stop offset="0.170676" stop-color="#FCF5AF"/>
<stop offset="0.309086" stop-color="#ECD42F"/>
<stop offset="0.491314" stop-color="#E9B00C"/>
<stop offset="0.704021" stop-color="#ECB600"/>
<stop offset="0.78935" stop-color="#E8CF29"/>
<stop offset="0.843399" stop-color="#EBD431"/>
<stop offset="0.909367" stop-color="#E2C317"/>
<stop offset="1" stop-color="#E9D14F"/>
</linearGradient>
<linearGradient id="paint1_linear_1191_497" x1="43.6602" y1="151.211" x2="162.241" y2="31.4648" gradientUnits="userSpaceOnUse">
<stop stop-color="#EEBB5C"/>
<stop offset="0.0550575" stop-color="#FDEE48"/>
<stop offset="0.170676" stop-color="#E8BB06"/>
<stop offset="0.309086" stop-color="#D57B01"/>
<stop offset="0.491314" stop-color="#C86101"/>
<stop offset="0.660555" stop-color="#D88C2D"/>
<stop offset="0.771761" stop-color="#E8BE29"/>
<stop offset="0.815114" stop-color="#E8BE29"/>
<stop offset="0.881945" stop-color="#E8AE0E"/>
<stop offset="0.930202" stop-color="#D98317"/>
<stop offset="1" stop-color="#EBAE4E"/>
</linearGradient>
<linearGradient id="paint2_linear_1191_497" x1="51.8756" y1="167.041" x2="161.221" y2="42.6818" gradientUnits="userSpaceOnUse">
<stop stop-color="#FDF8CE"/>
<stop offset="0.0550575" stop-color="#F2E158"/>
<stop offset="0.170676" stop-color="#FCF5AF"/>
<stop offset="0.309086" stop-color="#ECD42F"/>
<stop offset="0.491314" stop-color="#E9B00C"/>
<stop offset="0.704021" stop-color="#ECB600"/>
<stop offset="0.78935" stop-color="#E8CF29"/>
<stop offset="0.843399" stop-color="#EBD431"/>
<stop offset="0.909367" stop-color="#E2C317"/>
<stop offset="1" stop-color="#E9D14F"/>
</linearGradient>
<linearGradient id="paint3_linear_1191_497" x1="86.6914" y1="187.751" x2="139.876" y2="45.5527" gradientUnits="userSpaceOnUse">
<stop stop-color="#FFDC5E"/>
<stop offset="0.417119" stop-color="#FFED97"/>
<stop offset="1" stop-color="#FFF27B"/>
</linearGradient>
<linearGradient id="paint4_linear_1191_497" x1="143.856" y1="156.551" x2="86.6004" y2="80.7112" gradientUnits="userSpaceOnUse">
<stop stop-color="#E4991A"/>
<stop offset="0.474971" stop-color="#EAAA2E" stop-opacity="0"/>
<stop offset="1" stop-color="#FFF27B" stop-opacity="0"/>
</linearGradient>
<linearGradient id="paint5_linear_1191_497" x1="143.042" y1="100.621" x2="142.773" y2="100.971" gradientUnits="userSpaceOnUse">
<stop stop-color="#F8E95F"/>
<stop offset="1" stop-color="#CBBF4D"/>
</linearGradient>
<linearGradient id="paint6_linear_1191_497" x1="127.612" y1="93.2525" x2="127.541" y2="93.9781" gradientUnits="userSpaceOnUse">
<stop stop-color="#F8E95F"/>
<stop offset="1" stop-color="#CBBF4D"/>
</linearGradient>
<linearGradient id="paint7_linear_1191_497" x1="106.032" y1="94.3085" x2="106.512" y2="95.6452" gradientUnits="userSpaceOnUse">
<stop stop-color="#F8E95F"/>
<stop offset="1" stop-color="#CBBF4D"/>
</linearGradient>
<linearGradient id="paint8_linear_1191_497" x1="138.13" y1="114.992" x2="140.318" y2="193.028" gradientUnits="userSpaceOnUse">
<stop stop-color="white"/>
<stop offset="0.105858" stop-color="white"/>
<stop offset="0.21696" stop-color="white" stop-opacity="0.961194"/>
<stop offset="1" stop-color="white" stop-opacity="0"/>
</linearGradient>
</defs>
</svg>
