<svg width="221" height="217" viewBox="0 0 221 217" fill="none" xmlns="http://www.w3.org/2000/svg">
<path d="M80.7176 151.708C115.419 176.811 161.07 172.145 181.072 144.494C200.918 117.06 188.402 75.436 153.433 50.14C118.559 24.9126 76.2144 27.171 56.3148 54.6797C36.3117 82.3318 46.0174 126.606 80.7176 151.708Z" stroke="url(#paint0_linear_1191_510)" stroke-width="6.27923"/>
<path d="M175.247 158.744C204.203 124.43 196.724 82.9388 156.443 50.2483C114.969 19.6671 69.9788 27.0444 46.3312 57.1227C22.6837 87.201 31.3568 137.199 68.0814 163.766C104.806 190.332 153.461 188.86 175.247 158.744Z" fill="url(#paint1_linear_1191_510)"/>
<path d="M68.8767 165.464C104.626 191.325 151.053 187.132 171.013 159.539C180.961 145.787 182.607 128.486 177.23 111.215C171.846 93.9211 159.44 76.8064 141.579 63.8861C105.656 37.8996 62.5613 39.6997 42.7015 67.1534C22.7405 94.7472 33.1283 139.604 68.8767 165.464Z" stroke="url(#paint2_linear_1191_510)" stroke-width="6.27923"/>
<path d="M72.028 160.8C106.469 185.715 146.54 182.239 162.992 159.496C179.445 136.753 170.205 97.6077 135.764 72.6932C101.323 47.779 61.2524 51.2535 44.8002 73.9966C28.3479 96.7398 37.5871 135.886 72.028 160.8Z" fill="#FFD93B" stroke="url(#paint3_linear_1191_510)" stroke-width="17.4423"/>
<path d="M77.6508 152.557C91.8023 162.794 107.53 167.932 121.477 168.02C135.428 168.108 147.475 163.157 154.557 153.367C161.639 143.576 162.571 130.586 158.122 117.363C153.674 104.144 143.873 90.8131 129.722 80.576C115.57 70.3388 99.8419 65.2021 85.8945 65.1143C71.9438 65.0264 59.8972 69.9767 52.8148 79.7673C45.7325 89.5578 44.8007 102.549 49.2498 115.771C53.698 128.99 63.4993 142.32 77.6508 152.557Z" stroke="url(#paint4_linear_1191_510)" stroke-width="2.79077"/>
<path d="M99.3747 118.591C99.5054 118.577 99.5751 118.465 99.5304 118.342L96.1713 109.057C96.1266 108.934 95.9844 108.845 95.8537 108.859L90.8837 109.381C90.753 109.395 90.6831 109.506 90.7278 109.63L94.0869 118.914C94.1317 119.038 94.274 119.127 94.4047 119.113L99.3747 118.591Z" fill="#DF9527"/>
<path d="M115.454 116.901C115.585 116.887 115.654 116.775 115.61 116.652L112.251 107.367C112.206 107.244 112.064 107.155 111.933 107.169L106.963 107.691C106.832 107.705 106.762 107.816 106.807 107.94L110.166 117.224C110.211 117.348 110.353 117.437 110.484 117.423L115.454 116.901Z" fill="#DF9527"/>
<path fill-rule="evenodd" clip-rule="evenodd" d="M99.3493 125.353L115.368 123.67L119.8 135.92L137.193 134.091L124.532 99.0969L106.919 92.631L85.2358 94.91L73.6689 104.579L86.2822 139.442L103.781 137.603L99.3493 125.353ZM88.0587 136.596L77.3266 106.933L122.823 102.151L133.555 131.814L121.552 133.076L117.116 120.814L95.5386 123.082L99.9748 135.344L88.0587 136.596Z" fill="#DF9527"/>
<path d="M73.9185 103.603L73.6689 104.579L85.2389 94.9095L85.0071 94.269L73.9185 103.603Z" fill="url(#paint5_linear_1191_510)"/>
<path d="M106.916 92.6317L85.2383 94.9102L85.0065 94.2696L106.684 91.9912L106.916 92.6317Z" fill="url(#paint6_linear_1191_510)"/>
<path d="M137.187 134.092L124.54 99.1372L124.762 98.639L137.344 133.695L137.187 134.092Z" fill="#F8E95F"/>
<path d="M124.54 99.1375L106.917 92.6312L106.685 91.9907L124.762 98.6393L124.54 99.1375Z" fill="url(#paint7_linear_1191_510)"/>
<g filter="url(#filter0_f_1191_510)">
<path d="M182.619 120.985L192.875 104.64C196.053 123.316 189.105 138.265 186.374 142.412C184.213 146.463 180.203 152.153 175.481 158.397C162.948 177.99 136.53 195.465 95.4623 182.416C46.6183 165.618 30.4282 126.035 28.6914 108.556L178.443 122.899L182.619 120.985Z" fill="url(#paint8_linear_1191_510)" fill-opacity="0.3"/>
</g>
<defs>
<filter id="filter0_f_1191_510" x="27.5237" y="103.472" width="167.334" height="84.6255" filterUnits="userSpaceOnUse" color-interpolation-filters="sRGB">
<feFlood flood-opacity="0" result="BackgroundImageFix"/>
<feBlend mode="normal" in="SourceGraphic" in2="BackgroundImageFix" result="shape"/>
<feGaussianBlur stdDeviation="0.583853" result="effect1_foregroundBlur_1191_510"/>
</filter>
<linearGradient id="paint0_linear_1191_510" x1="179.574" y1="151.996" x2="72.3114" y2="31.4152" gradientUnits="userSpaceOnUse">
<stop stop-color="#FDF8CE"/>
<stop offset="0.0550575" stop-color="#F2E158"/>
<stop offset="0.170676" stop-color="#FCF5AF"/>
<stop offset="0.309086" stop-color="#ECD42F"/>
<stop offset="0.491314" stop-color="#E9B00C"/>
<stop offset="0.704021" stop-color="#ECB600"/>
<stop offset="0.78935" stop-color="#E8CF29"/>
<stop offset="0.843399" stop-color="#EBD431"/>
<stop offset="0.909367" stop-color="#E2C317"/>
<stop offset="1" stop-color="#E9D14F"/>
</linearGradient>
<linearGradient id="paint1_linear_1191_510" x1="177.731" y1="151.211" x2="59.1503" y2="31.4648" gradientUnits="userSpaceOnUse">
<stop stop-color="#EEBB5C"/>
<stop offset="0.0550575" stop-color="#FDEE48"/>
<stop offset="0.170676" stop-color="#E8BB06"/>
<stop offset="0.309086" stop-color="#D57B01"/>
<stop offset="0.491314" stop-color="#C86101"/>
<stop offset="0.660555" stop-color="#D88C2D"/>
<stop offset="0.771761" stop-color="#E8BE29"/>
<stop offset="0.815114" stop-color="#E8BE29"/>
<stop offset="0.881945" stop-color="#E8AE0E"/>
<stop offset="0.930202" stop-color="#D98317"/>
<stop offset="1" stop-color="#EBAE4E"/>
</linearGradient>
<linearGradient id="paint2_linear_1191_510" x1="169.516" y1="167.041" x2="60.1706" y2="42.6818" gradientUnits="userSpaceOnUse">
<stop stop-color="#FDF8CE"/>
<stop offset="0.0550575" stop-color="#F2E158"/>
<stop offset="0.170676" stop-color="#FCF5AF"/>
<stop offset="0.309086" stop-color="#ECD42F"/>
<stop offset="0.491314" stop-color="#E9B00C"/>
<stop offset="0.704021" stop-color="#ECB600"/>
<stop offset="0.78935" stop-color="#E8CF29"/>
<stop offset="0.843399" stop-color="#EBD431"/>
<stop offset="0.909367" stop-color="#E2C317"/>
<stop offset="1" stop-color="#E9D14F"/>
</linearGradient>
<linearGradient id="paint3_linear_1191_510" x1="134.7" y1="187.751" x2="81.5156" y2="45.5527" gradientUnits="userSpaceOnUse">
<stop stop-color="#FFDC5E"/>
<stop offset="0.417119" stop-color="#FFED97"/>
<stop offset="1" stop-color="#FFF27B"/>
</linearGradient>
<linearGradient id="paint4_linear_1191_510" x1="77.5354" y1="156.551" x2="134.791" y2="80.7112" gradientUnits="userSpaceOnUse">
<stop stop-color="#E4991A"/>
<stop offset="0.474971" stop-color="#EAAA2E" stop-opacity="0"/>
<stop offset="1" stop-color="#FFF27B" stop-opacity="0"/>
</linearGradient>
<linearGradient id="paint5_linear_1191_510" x1="78.3496" y1="100.621" x2="78.6185" y2="100.971" gradientUnits="userSpaceOnUse">
<stop stop-color="#F8E95F"/>
<stop offset="1" stop-color="#CBBF4D"/>
</linearGradient>
<linearGradient id="paint6_linear_1191_510" x1="93.78" y1="93.2525" x2="93.8502" y2="93.9781" gradientUnits="userSpaceOnUse">
<stop stop-color="#F8E95F"/>
<stop offset="1" stop-color="#CBBF4D"/>
</linearGradient>
<linearGradient id="paint7_linear_1191_510" x1="115.359" y1="94.3085" x2="114.88" y2="95.6452" gradientUnits="userSpaceOnUse">
<stop stop-color="#F8E95F"/>
<stop offset="1" stop-color="#CBBF4D"/>
</linearGradient>
<linearGradient id="paint8_linear_1191_510" x1="83.2615" y1="114.992" x2="81.0736" y2="193.028" gradientUnits="userSpaceOnUse">
<stop stop-color="white"/>
<stop offset="0.105858" stop-color="white"/>
<stop offset="0.21696" stop-color="white" stop-opacity="0.961194"/>
<stop offset="1" stop-color="white" stop-opacity="0"/>
</linearGradient>
</defs>
</svg>
