<svg width="232" height="292" viewBox="0 0 232 292" fill="none" xmlns="http://www.w3.org/2000/svg">
<path d="M3.91934 153.043C15.6763 109.722 87.2852 63.4118 91.9781 0.513424V0.509766C91.9781 0.509766 202.212 41.3984 227.235 145.181C252.259 248.964 157.116 288.71 123.427 291.421C-13.4854 291.411 -2.4815 176.629 3.91934 153.043Z" fill="#DB2B00"/>
<path d="M176.78 182.92C194.896 258.398 123.323 283.663 85.5798 267.833C47.8369 252.004 32.1115 197.072 63.5627 165.622C112.309 116.879 118.653 96.4336 118.653 96.4336C118.653 96.4336 167.345 143.608 176.78 182.92Z" fill="#FC561C"/>
<path d="M77.715 225.376C85.576 204.934 118.598 171.912 118.598 171.912C118.598 171.912 146.348 197.072 150.049 228.521C153.194 255.253 129.408 275.832 106.019 270.978C85.4967 266.719 70.0523 245.303 77.715 225.376Z" fill="#FFBD0B"/>
</svg>
